<svg width="615" height="557" viewBox="0 0 615 557" fill="none" xmlns="http://www.w3.org/2000/svg">
<g clip-path="url(#clip0)">
<path d="M307.5 198.815C318.704 198.815 329.799 201.018 340.151 205.3C350.502 209.582 359.908 215.857 367.83 223.769C375.753 231.68 382.038 241.073 386.325 251.41C390.613 261.746 392.82 272.825 392.82 284.014V488.145H222.18V284.014C222.18 272.825 224.387 261.746 228.675 251.41C232.962 241.073 239.247 231.68 247.17 223.769C255.092 215.857 264.498 209.582 274.849 205.3C285.201 201.018 296.296 198.815 307.5 198.815Z" fill="#C8DDE2"/>
<path d="M277.899 301.247H262.576V352.019H277.899V301.247Z" fill="white"/>
<path d="M332.922 356.192H282.078V402.095H332.922V356.192Z" fill="white"/>
<path d="M332.922 301.247H282.078V352.019H332.922V301.247Z" fill="white"/>
<path d="M337.101 297.074H352.423V296.03C352.429 289.642 351.064 283.326 348.421 277.508C345.778 271.69 341.918 266.505 337.101 262.301V297.074Z" fill="white"/>
<path d="M282.078 297.074H332.922V259.048C325.445 253.906 316.578 251.158 307.5 251.17C298.422 251.158 289.555 253.906 282.078 259.048V297.074Z" fill="white"/>
<path d="M277.899 356.192H262.576V390.967C262.576 393.918 263.75 396.749 265.84 398.836C267.93 400.923 270.765 402.095 273.72 402.095H277.899V356.192Z" fill="white"/>
<path d="M337.101 356.192V402.095H341.28C344.235 402.095 347.07 400.923 349.16 398.836C351.249 396.749 352.423 393.918 352.423 390.967V356.192H337.101Z" fill="white"/>
<path d="M277.899 297.074V262.301C273.082 266.505 269.222 271.69 266.579 277.508C263.936 283.326 262.571 289.642 262.576 296.031V297.074H277.899Z" fill="white"/>
<path d="M352.423 301.247H337.101V352.019H352.423V301.247Z" fill="white"/>
<path d="M380.631 368.711C385.632 368.711 389.686 364.663 389.686 359.669C389.686 354.676 385.632 350.628 380.631 350.628C375.631 350.628 371.577 354.676 371.577 359.669C371.577 364.663 375.631 368.711 380.631 368.711Z" fill="#194D5A"/>
<path d="M95.1802 272.894H83.1537V312.744H95.1802V272.894Z" fill="#3A8598" fill-opacity="0.28"/>
<path d="M138.366 272.894H98.4602V312.744H138.366V272.894Z" fill="#3A8598" fill-opacity="0.28"/>
<path d="M153.673 272.894H141.646V312.744H153.673V272.894Z" fill="#3A8598" fill-opacity="0.28"/>
<path d="M141.646 269.619H153.673V268.799C153.677 263.785 152.606 258.828 150.531 254.262C148.457 249.695 145.427 245.625 141.646 242.326V269.619Z" fill="#3A8598" fill-opacity="0.28"/>
<path d="M138.366 316.019H98.4602V352.047H138.366V316.019Z" fill="#3A8598" fill-opacity="0.28"/>
<path d="M95.1802 316.019H83.1537V343.313C83.1537 345.629 84.0752 347.851 85.7155 349.489C87.3558 351.127 89.5805 352.047 91.9002 352.047H95.1802L95.1802 316.019Z" fill="#3A8598" fill-opacity="0.28"/>
<path d="M141.646 316.019V352.047H144.926C146.075 352.047 147.212 351.821 148.273 351.382C149.334 350.943 150.299 350.3 151.111 349.489C151.923 348.678 152.567 347.715 153.007 346.655C153.446 345.596 153.673 344.46 153.673 343.313V316.019H141.646Z" fill="#3A8598" fill-opacity="0.28"/>
<path d="M95.1802 269.619V242.326C91.3991 245.626 88.3694 249.695 86.2949 254.262C84.2205 258.828 83.1494 263.785 83.1537 268.799V269.619H95.1802Z" fill="#3A8598" fill-opacity="0.28"/>
<path d="M98.4602 269.619H138.366V239.773C132.498 235.737 125.539 233.58 118.413 233.59C111.288 233.58 104.328 235.737 98.4602 239.773V269.619Z" fill="#3A8598" fill-opacity="0.28"/>
<path d="M169.379 356.401H67.7011C67.0488 356.401 66.4236 356.142 65.9624 355.681C65.5012 355.221 65.2418 354.596 65.2411 353.945V347.394C65.2418 346.743 65.5012 346.119 65.9624 345.658C66.4236 345.197 67.0489 344.938 67.7011 344.938H169.379C170.032 344.938 170.657 345.197 171.118 345.658C171.579 346.119 171.839 346.743 171.839 347.394V353.945C171.839 354.596 171.579 355.221 171.118 355.681C170.657 356.142 170.032 356.401 169.379 356.401Z" fill="#C8DDE2"/>
<path d="M473.374 272.894H461.347V312.744H473.374V272.894Z" fill="#C8DDE2"/>
<path d="M516.56 272.894H476.654V312.744H516.56V272.894Z" fill="#C8DDE2"/>
<path d="M531.866 272.894H519.84V312.744H531.866V272.894Z" fill="#C8DDE2"/>
<path d="M519.84 269.619H531.866V268.799C531.871 263.785 530.8 258.828 528.725 254.262C526.651 249.695 523.621 245.625 519.84 242.326V269.619Z" fill="#C8DDE2"/>
<path d="M516.56 316.019H476.654V352.047H516.56V316.019Z" fill="#C8DDE2"/>
<path d="M473.374 316.019H461.347V343.313C461.347 345.629 462.269 347.851 463.909 349.489C465.55 351.127 467.774 352.047 470.094 352.047H473.374L473.374 316.019Z" fill="#C8DDE2"/>
<path d="M519.84 316.019V352.047H523.12C524.268 352.047 525.406 351.821 526.467 351.382C527.528 350.943 528.492 350.3 529.305 349.489C530.117 348.678 530.761 347.715 531.201 346.655C531.64 345.596 531.866 344.46 531.866 343.313V316.019H519.84Z" fill="#C8DDE2"/>
<path d="M473.374 269.619V242.326C469.593 245.626 466.563 249.695 464.489 254.262C462.414 258.828 461.343 263.785 461.347 268.799V269.619H473.374Z" fill="#C8DDE2"/>
<path d="M476.654 269.619H516.56V239.773C510.692 235.737 503.732 233.58 496.607 233.59C489.481 233.58 482.522 235.737 476.654 239.773V269.619Z" fill="#C8DDE2"/>
<path d="M547.573 356.401H445.895C445.242 356.401 444.617 356.142 444.156 355.681C443.695 355.221 443.435 354.596 443.435 353.945V347.394C443.435 346.743 443.695 346.119 444.156 345.658C444.617 345.197 445.242 344.938 445.895 344.938H547.573C548.225 344.938 548.851 345.197 549.312 345.658C549.773 346.119 550.032 346.743 550.033 347.394V353.945C550.032 354.596 549.773 355.221 549.312 355.681C548.851 356.142 548.225 356.401 547.573 356.401Z" fill="#C8DDE2"/>
<path d="M577.738 488.841H37.2622C31.1686 488.834 25.3265 486.413 21.0176 482.111C16.7087 477.808 14.285 471.974 14.2781 465.889V116.049C14.285 109.964 16.7087 104.131 21.0176 99.8278C25.3265 95.525 31.1686 93.1047 37.2622 93.0978H577.738C583.832 93.1047 589.674 95.525 593.983 99.8278C598.291 104.131 600.715 109.964 600.722 116.049V465.889C600.715 471.974 598.291 477.808 593.983 482.111C589.674 486.413 583.832 488.834 577.738 488.841ZM37.2622 94.4888C31.5379 94.4953 26.0499 96.7689 22.0021 100.811C17.9544 104.853 15.6775 110.333 15.6711 116.049V465.889C15.6775 471.605 17.9544 477.085 22.0021 481.127C26.0499 485.169 31.5379 487.443 37.2622 487.449H577.738C583.462 487.443 588.95 485.169 592.998 481.127C597.046 477.085 599.323 471.605 599.329 465.889V116.049C599.323 110.333 597.046 104.853 592.998 100.811C588.95 96.7689 583.462 94.4953 577.738 94.4888H37.2622Z" fill="#3A8598"/>
<path d="M23.0178 138.841C17.2318 138.836 11.6594 136.658 7.40847 132.738C3.1575 128.819 0.539334 123.445 0.0745012 117.686C-0.390332 111.927 1.33221 106.204 4.89967 101.655C8.46712 97.1061 13.6182 94.0644 19.3288 93.1347L301.793 0.457878C305.463 -0.148033 309.208 -0.152622 312.88 0.444294L595.72 93.15C601.743 94.1422 607.125 97.4815 610.683 102.434C614.242 107.387 615.686 113.547 614.698 119.563C613.711 125.578 610.372 130.955 605.416 134.514C600.46 138.072 594.292 139.521 588.267 138.54C585.22 138.106 310.005 98.8641 307.494 98.7609C304.994 98.8641 29.5103 138.144 26.7279 138.541C25.5013 138.74 24.2606 138.841 23.0178 138.841Z" fill="#3A8598"/>
<path d="M428.644 433.582C429.227 432.827 429.637 431.953 429.845 431.023C430.053 430.092 430.054 429.127 429.848 428.196C429.642 427.265 429.234 426.391 428.653 425.634C428.072 424.878 427.332 424.257 426.485 423.817L427.776 408.97L418.932 405.986L417.404 426.979C416.758 428.449 416.674 430.104 417.168 431.631C417.663 433.159 418.701 434.452 420.087 435.266C421.472 436.08 423.109 436.358 424.686 436.048C426.263 435.738 427.671 434.86 428.644 433.582Z" fill="#FFB8B8"/>
<path d="M472.78 549.018L464.817 549.018L461.031 518.349L472.783 518.349L472.78 549.018Z" fill="#FFB8B8"/>
<path d="M459.129 546.746H474.485V556.401H449.461C449.461 555.133 449.711 553.877 450.197 552.706C450.683 551.534 451.395 550.47 452.293 549.574C453.19 548.677 454.256 547.966 455.429 547.481C456.602 546.995 457.86 546.746 459.129 546.746Z" fill="#4C7580"/>
<path d="M454.705 528.668L446.973 530.565L435.964 501.686L447.377 498.885L454.705 528.668Z" fill="#FFB8B8"/>
<path d="M440.907 529.714L455.819 526.055L458.126 535.431L433.824 541.394C433.522 540.163 433.464 538.884 433.656 537.631C433.848 536.378 434.285 535.174 434.943 534.09C435.601 533.005 436.466 532.061 437.489 531.31C438.512 530.559 439.674 530.017 440.907 529.714Z" fill="#4C7580"/>
<path d="M463.46 539.241C462.733 539.242 462.032 538.974 461.492 538.489C460.952 538.003 460.612 537.335 460.537 536.613L451.375 451.376L443.402 477.441L454.694 518.151C454.889 518.848 454.818 519.593 454.496 520.243C454.174 520.892 453.623 521.399 452.949 521.667L443.972 525.253C443.602 525.401 443.206 525.472 442.808 525.463C442.41 525.454 442.018 525.364 441.656 525.199C441.294 525.034 440.969 524.798 440.701 524.504C440.432 524.21 440.227 523.865 440.096 523.49L426.256 483.84C424.741 479.511 424.07 474.932 424.281 470.351L426.213 427.561L477.086 429.712L476.292 535.578C476.283 536.315 475.998 537.022 475.494 537.56C474.99 538.099 474.303 538.43 473.567 538.489L463.688 539.232C463.612 539.238 463.535 539.241 463.46 539.241Z" fill="#194D5A"/>
<path d="M455.035 332.864C464.482 332.864 472.141 325.216 472.141 315.781C472.141 306.347 464.482 298.699 455.035 298.699C445.587 298.699 437.928 306.347 437.928 315.781C437.928 325.216 445.587 332.864 455.035 332.864Z" fill="#FFB8B8"/>
<path d="M467.614 432.495C463.109 432.495 457.512 432.127 451.723 431.747C443.81 431.227 435.629 430.69 429.522 431.043C428.697 431.124 427.865 430.994 427.106 430.663C426.346 430.333 425.683 429.814 425.182 429.155C418.886 421.105 428.597 389.715 429.013 388.382L436.916 353.281L437.255 353.358L436.916 353.281C438.654 345.562 444.209 339.867 451.412 338.42C458.153 337.067 464.675 339.763 468.857 345.636C469.079 345.947 469.301 346.267 469.523 346.595C483.14 366.734 475.438 416.768 474.922 419.998C475.641 420.858 479.531 425.723 478.462 429.102C478.027 430.477 476.846 431.414 474.95 431.887C472.536 432.365 470.075 432.569 467.614 432.495Z" fill="#CCCCCC"/>
<path d="M429.798 432.511C428.248 432.511 426.158 431.94 423.34 430.769C422.129 430.266 418.443 428.734 422.917 389.684C425.115 370.502 428.264 351.454 428.296 351.264L428.326 351.08L428.496 351.004C428.577 350.967 436.618 347.286 438.016 342.556C438.065 342.392 438.119 342.233 438.179 342.08C438.564 341.028 439.34 340.166 440.347 339.672C441.353 339.179 442.511 339.092 443.58 339.431C444.708 339.7 445.692 340.388 446.332 341.356C446.971 342.323 447.218 343.497 447.022 344.639C446.535 347.724 445.599 350.721 444.243 353.536C440.459 361.332 437.895 382.001 437.87 382.209C437.725 383.974 434.291 425.798 433.629 428.971C433.398 430.08 432.973 431.437 431.725 432.094C431.127 432.389 430.465 432.532 429.798 432.511Z" fill="#FF8A00"/>
<path d="M448.486 430.908C448.173 430.908 447.87 430.804 447.623 430.612C442.59 426.793 450.735 380.5 455.566 364.528C456.533 361.33 457.395 358.591 458.127 356.387C459.46 352.432 460.391 348.352 460.905 344.211C461.171 341.967 461.749 340.686 462.672 340.293C463.314 340.02 464.068 340.205 464.915 340.845C469.376 340.626 473.712 342.446 477.731 344.448L481.347 346.25L485.405 417.991C485.29 422.569 476.252 425.802 472.308 426.008C465.978 426.34 454.612 427.369 449.603 430.535C449.274 430.764 448.886 430.893 448.486 430.908Z" fill="#FF8A00"/>
<path d="M425.879 417.448C425.82 417.448 425.76 417.446 425.7 417.442L417.504 416.939C417.096 416.914 416.697 416.804 416.334 416.617C415.971 416.43 415.65 416.169 415.393 415.852C415.136 415.534 414.948 415.167 414.841 414.773C414.734 414.379 414.711 413.967 414.772 413.563L418.48 389.027L425.462 354.601C425.634 353.753 425.983 352.951 426.485 352.246C426.988 351.541 427.633 350.949 428.379 350.509C429.125 350.069 429.955 349.791 430.816 349.692C431.677 349.593 432.549 349.675 433.376 349.935C434.789 350.385 435.994 351.325 436.774 352.585C437.555 353.845 437.858 355.342 437.629 356.806L432.083 391.301L428.799 414.911C428.698 415.613 428.348 416.256 427.812 416.721C427.276 417.187 426.59 417.445 425.879 417.448Z" fill="#FF8A00"/>
<path d="M458.16 332.444C460.734 332.499 463.292 332.01 465.663 331.008C468.035 330.007 470.168 328.515 471.921 326.632C473.675 324.748 475.009 322.516 475.837 320.081C476.665 317.646 476.967 315.063 476.724 312.503C476.481 309.943 475.699 307.463 474.428 305.227C473.157 302.99 471.426 301.048 469.349 299.527C467.273 298.006 464.898 296.941 462.38 296.402C459.862 295.862 457.258 295.862 454.74 296.399C450.978 294.118 446.604 292.583 442.221 292.974C437.837 293.364 433.502 295.963 431.862 300.041C430.223 304.12 431.984 309.496 436.06 311.154C438.673 312.216 441.624 311.701 444.413 311.272C447.202 310.844 450.244 310.564 452.671 312.001C455.098 313.438 456.189 317.291 454.015 319.087C452.863 320.077 452.04 321.394 451.656 322.863C451.273 324.332 451.346 325.882 451.867 327.308C452.959 330.129 455.941 332.396 458.16 332.444Z" fill="#2F2E41"/>
<path d="M420.241 333.967C415.782 333.97 411.508 335.741 408.356 338.89C405.205 342.039 403.434 346.309 403.434 350.761C403.434 355.213 405.205 359.483 408.356 362.632C411.507 365.781 415.782 367.551 420.241 367.554H420.241C424.699 367.551 428.974 365.781 432.125 362.632C435.277 359.483 437.047 355.213 437.047 350.761C437.047 346.309 435.277 342.039 432.125 338.89C428.974 335.741 424.699 333.97 420.241 333.967Z" fill="#4C7580"/>
<path d="M418.645 357.735C418.202 357.736 417.771 357.593 417.417 357.328L417.395 357.311L412.77 353.778C412.556 353.614 412.377 353.41 412.241 353.176C412.106 352.943 412.019 352.686 411.983 352.418C411.948 352.151 411.966 351.88 412.036 351.619C412.105 351.359 412.226 351.115 412.39 350.901C412.554 350.687 412.759 350.508 412.993 350.373C413.226 350.238 413.484 350.15 413.752 350.115C414.019 350.08 414.291 350.097 414.552 350.167C414.813 350.237 415.057 350.357 415.271 350.521L418.267 352.815L425.345 343.593C425.51 343.379 425.714 343.2 425.948 343.065C426.181 342.93 426.439 342.843 426.707 342.807C426.974 342.772 427.246 342.79 427.507 342.859C427.767 342.929 428.012 343.049 428.226 343.213L428.226 343.214L428.182 343.274L428.228 343.214C428.66 343.545 428.942 344.034 429.013 344.573C429.085 345.113 428.939 345.658 428.608 346.09L420.282 356.932C420.089 357.182 419.841 357.384 419.558 357.523C419.274 357.662 418.963 357.734 418.647 357.733L418.645 357.735Z" fill="white"/>
<path d="M455.667 380.535H396.643C395.858 380.534 395.081 380.689 394.355 380.988C393.63 381.288 392.971 381.728 392.416 382.282C391.861 382.837 391.421 383.495 391.12 384.219C390.82 384.943 390.666 385.719 390.666 386.503V445.443C390.666 446.227 390.82 447.004 391.12 447.728C391.421 448.452 391.861 449.11 392.416 449.664C392.971 450.219 393.63 450.658 394.355 450.958C395.081 451.258 395.858 451.412 396.643 451.412H455.667C456.452 451.412 457.229 451.258 457.954 450.958C458.679 450.658 459.338 450.219 459.894 449.664C460.449 449.11 460.889 448.452 461.189 447.728C461.489 447.004 461.644 446.227 461.644 445.443V386.503C461.644 385.719 461.489 384.943 461.189 384.219C460.889 383.495 460.449 382.837 459.894 382.282C459.338 381.728 458.679 381.288 457.954 380.988C457.229 380.689 456.452 380.534 455.667 380.535Z" fill="#4C7580"/>
<path d="M442.374 424.608L414.506 430.027C412.853 430.347 411.141 429.998 409.744 429.059C408.348 428.119 407.382 426.665 407.059 425.015L404.916 414.03C404.596 412.379 404.945 410.669 405.886 409.275C406.827 407.881 408.284 406.916 409.936 406.593L437.804 401.174C439.457 400.854 441.169 401.202 442.565 402.142C443.962 403.082 444.927 404.536 445.251 406.186L447.393 417.171C447.713 418.822 447.365 420.532 446.423 421.926C445.482 423.32 444.026 424.285 442.374 424.608Z" fill="white"/>
<path d="M436.798 411.63L415.531 415.766C415.142 415.842 414.739 415.76 414.41 415.539C414.081 415.318 413.854 414.975 413.779 414.587C413.703 414.198 413.785 413.796 414.006 413.468C414.228 413.139 414.571 412.913 414.96 412.837L436.227 408.701C436.42 408.664 436.618 408.664 436.81 408.703C437.003 408.742 437.186 408.818 437.349 408.928C437.511 409.037 437.651 409.178 437.76 409.341C437.868 409.505 437.943 409.688 437.981 409.88C438.018 410.073 438.017 410.271 437.978 410.463C437.939 410.655 437.862 410.838 437.753 411C437.643 411.163 437.502 411.302 437.338 411.41C437.175 411.518 436.991 411.593 436.798 411.63Z" fill="#4C7580"/>
<path d="M432.664 417.755L421.664 419.894C421.471 419.932 421.273 419.931 421.081 419.892C420.889 419.853 420.706 419.776 420.543 419.667C420.381 419.557 420.241 419.417 420.133 419.253C420.024 419.09 419.949 418.907 419.912 418.715C419.874 418.522 419.875 418.324 419.914 418.132C419.953 417.94 420.03 417.758 420.139 417.595C420.249 417.433 420.39 417.294 420.553 417.185C420.717 417.077 420.9 417.002 421.093 416.965L432.093 414.825C432.482 414.75 432.885 414.832 433.214 415.053C433.543 415.274 433.77 415.616 433.845 416.005C433.921 416.393 433.839 416.796 433.618 417.124C433.396 417.452 433.053 417.679 432.664 417.755H432.664Z" fill="#4C7580"/>
<path d="M461.644 386.503V394.337H390.666V386.503C390.666 385.719 390.82 384.943 391.12 384.219C391.421 383.495 391.861 382.837 392.416 382.282C392.971 381.728 393.63 381.288 394.355 380.988C395.081 380.689 395.858 380.534 396.643 380.535H455.667C456.452 380.534 457.229 380.689 457.954 380.988C458.679 381.288 459.338 381.728 459.894 382.282C460.449 382.837 460.889 383.495 461.189 384.219C461.489 384.943 461.644 385.719 461.644 386.503Z" fill="#194D5A"/>
<path d="M453.88 390.591C454.38 389.778 455.052 389.085 455.849 388.561C456.646 388.036 457.549 387.692 458.494 387.553C459.438 387.414 460.402 387.484 461.317 387.757C462.231 388.031 463.075 388.501 463.788 389.135L477.227 382.653L483.163 389.847L464.056 398.735C462.91 399.861 461.39 400.527 459.785 400.609C458.179 400.69 456.6 400.18 455.346 399.176C454.091 398.173 453.249 396.744 452.979 395.162C452.709 393.579 453.03 391.953 453.88 390.591Z" fill="#FFB8B8"/>
<path d="M472.548 397.552C471.887 397.552 471.244 397.33 470.724 396.921C470.205 396.512 469.838 395.94 469.683 395.298L467.731 387.195C467.582 386.586 467.633 385.945 467.876 385.366C468.119 384.788 468.542 384.303 469.082 383.982L480.854 376.947L474.836 354.945C474.412 353.381 474.505 351.723 475.1 350.215H475.1C475.668 348.787 476.663 347.567 477.95 346.724C479.237 345.88 480.753 345.452 482.291 345.499C483.83 345.547 485.317 346.066 486.549 346.987C487.782 347.908 488.7 349.186 489.179 350.647L495.823 370.904C496.639 373.373 496.645 376.038 495.841 378.511C495.037 380.984 493.464 383.137 491.351 384.656L474.274 396.993C473.772 397.356 473.168 397.552 472.548 397.552Z" fill="#FF8A00"/>
<path d="M492.001 557H420.959C420.774 557 420.597 556.927 420.467 556.796C420.336 556.666 420.263 556.489 420.263 556.305C420.263 556.12 420.336 555.943 420.467 555.813C420.597 555.682 420.774 555.609 420.959 555.609H492.001C492.186 555.609 492.363 555.682 492.494 555.813C492.624 555.943 492.698 556.12 492.698 556.305C492.698 556.489 492.624 556.666 492.494 556.796C492.363 556.927 492.186 557 492.001 557Z" fill="#CCCCCC"/>
</g>
<defs>
<clipPath id="clip0">
<rect width="615" height="557" fill="white"/>
</clipPath>
</defs>
</svg>
