<svg width="731" height="399" viewBox="0 0 731 399" fill="none" xmlns="http://www.w3.org/2000/svg">
<path d="M501.172 341.356C569.39 340.552 637.606 341.013 705.819 342.74C711.687 342.888 717.776 343.079 722.959 344.632C728.141 346.186 732.129 349.518 730.711 352.719C704.083 353.506 677.427 353.749 650.743 353.449C644.933 356.293 638.553 360.578 642.124 364.415C644.595 367.07 650.695 367.86 656.03 367.866C665.691 367.877 675.392 366.292 684.911 367.222C694.429 368.152 703.927 373.156 701.139 378.351C699.021 382.296 690.988 384.248 683.677 384.597C676.367 384.946 668.881 384.221 661.735 385.155C654.944 386.043 649.061 388.349 642.706 389.96C632.68 392.5 621.567 393.284 610.633 393.952C526.675 399.079 442.02 399.038 357.567 398.991C323.377 398.973 288.723 398.921 255.707 393.932C236.887 391.089 218.853 386.673 199.796 384.381C177.033 381.645 153.506 382.016 130.227 382.098C89.3601 382.242 48.5276 381.455 7.72955 379.737C4.69352 379.609 0.96686 379.175 0.147518 377.529C-0.80868 375.607 3.07197 374.108 6.35219 373.341C24.9393 369.041 43.8388 366.223 62.8724 364.915C72.5118 364.237 82.445 363.892 91.3107 361.662C100.176 359.432 107.922 354.755 107.839 349.3C107.813 347.636 107.111 345.855 108.5 344.386C110.345 342.434 114.885 341.986 118.802 341.773C162.222 339.414 205.879 338.429 249.497 338.825C264.84 338.964 280.246 339.273 295.48 338.24C307.962 337.393 320.189 335.656 332.491 334.197C349.003 332.239 420.866 322.094 431.35 330.325C439.197 336.487 422.995 337.817 444.043 340.331C462.369 342.52 482.584 341.575 501.172 341.356Z" fill="#F2F2F2"/>
<path d="M235.594 313.215C235.594 313.215 210.296 363.247 231.826 363.247C253.357 363.247 524.64 364.323 532.176 350.335C537.455 340.536 534.545 305.649 532.328 285.638C531.898 281.749 529.993 278.172 527.005 275.644C524.018 273.115 520.174 271.827 516.265 272.043C457.594 275.28 238.409 287.275 239.362 285.778C241.246 282.819 239.9 283.626 239.9 283.626C239.9 283.626 231.288 311.063 235.594 313.215Z" fill="#3A8598"/>
<path opacity="0.1" d="M532.867 285.638C532.436 281.749 530.531 278.172 527.544 275.644C524.556 273.115 520.713 271.827 516.804 272.043C458.133 275.28 238.947 287.275 239.9 285.778C241.784 282.819 240.438 283.626 240.438 283.626C240.438 283.626 238.516 289.751 236.942 296.44C237.165 296.418 237.332 296.628 236.605 297.906C236.54 298.194 236.477 298.483 236.414 298.771C245.193 299.638 455.716 288.117 513.036 284.955C516.945 284.738 520.788 286.026 523.776 288.555C526.764 291.084 528.668 294.66 529.099 298.549C530.747 313.427 532.777 336.526 531.541 351.426C532.018 351.167 532.421 350.792 532.714 350.335C537.994 340.536 535.083 305.649 532.867 285.638Z" fill="black"/>
<path d="M265.747 238.234C262.943 237.375 259.394 236.266 259.714 234.457C259.884 233.496 261.17 232.746 262.103 231.94C263.9 230.387 264.384 228.199 262.454 226.699C260.524 225.199 255.874 224.998 254.171 226.586C253.295 227.402 253.348 228.427 252.895 229.349C251.484 232.226 245.775 233.49 240.925 234.608C236.075 235.725 230.649 237.805 231.105 240.782C231.602 244.029 239.084 246.91 236.073 249.679C234.982 250.683 232.685 251.243 232.197 252.392C231.853 253.2 232.544 254.022 233.214 254.76L237.978 260.006C239.874 262.094 241.827 264.365 241.192 266.688C239.934 271.294 229.705 273.056 221.598 272.538C218.629 272.349 215.139 272.089 213.099 273.336C211.527 274.297 211.53 275.794 212.052 277.075C213.397 280.373 217.7 283.228 223.207 284.478C217.035 285.695 214.611 290.825 218.872 293.652C216.434 294.49 213.797 294.566 211.315 293.868C209.207 295.808 210.446 298.469 213.119 300.166C215.792 301.862 219.579 302.817 223.246 303.723L219.814 306.93C222.298 308.868 227.661 308.185 231.277 306.96C234.894 305.735 238.818 304.09 242.87 304.731C246.67 305.332 249.544 307.865 253.413 307.432C256.412 307.095 257.839 305.169 258.773 303.507L262.745 296.44C268.398 297.324 274.342 293.452 272.071 290.365C278.398 291.044 284.624 286.938 282.548 283.457C285.917 286.054 288.289 289.071 289.449 292.235C289.968 293.648 290.283 295.143 291.696 296.341C292.619 297.028 293.689 297.492 294.821 297.696C295.953 297.901 297.118 297.841 298.223 297.522C297.07 299.757 296.135 302.365 298.506 304.262C300.877 306.16 307.717 305.622 307.415 303.297C311.03 304.85 315.081 306.309 319.599 306.425C324.117 306.54 329.061 304.822 329.473 302.249C335.839 304.347 342.5 305.419 349.204 305.423C349.775 303.701 353.757 303.144 356.735 303.565C359.713 303.986 362.475 304.997 365.542 304.999C368.61 305.001 371.908 303.155 370.338 301.65C376.797 303 383.428 303.335 389.99 302.641C396.18 301.984 402.047 300.423 408.315 300.086C414.674 299.699 421.041 300.704 426.971 303.031C429.026 303.892 431.58 304.976 433.838 304.301C435.118 303.918 435.741 303.09 436.611 302.431C440.355 299.592 448.011 300.136 453.918 301.252C459.825 302.368 466.696 303.712 471.872 301.739C473.825 300.995 475.264 299.845 477.341 299.22C484.783 296.981 493.69 302.717 501.588 301.067C504.16 300.529 506.247 299.243 508.972 299.085C513.805 298.803 516.998 302.077 521.697 302.781C526.573 303.512 531.858 300.547 530.669 297.748C535.355 297.852 540.027 297.203 544.507 295.826L542.294 291.844C547.809 291.755 551.867 287.804 549.311 285.009C554.842 283.957 559.215 281.123 560.352 277.856C561.489 274.589 559.345 271.015 554.94 268.834C552.34 267.546 548.925 266.641 547.439 264.868C546.369 263.591 546.525 262.106 546.108 260.71C545.197 257.655 541.248 254.958 536.147 253.906C533.931 253.45 531.507 253.276 529.501 252.571C527.494 251.865 526.046 250.338 527.203 249.166C527.816 248.545 528.996 248.18 529.759 247.617C532.854 245.333 527.548 242.442 523.019 241.16L533.835 240.807L536.157 230.282C531.878 233.76 520.777 233.029 517.996 229.085C521.471 230.224 526.131 228.767 527.83 226.694C529.529 224.621 529.111 222.21 528.658 219.935C528.615 219.371 528.426 218.826 528.11 218.356C527.794 217.885 527.362 217.505 526.855 217.251C525.796 216.747 524.109 216.537 523.762 215.775C523.408 214.997 524.777 214.31 524.981 213.515C525.371 211.989 521.861 211.316 519.491 210.578C513.899 208.837 511.192 203.944 504.829 204.103C498.517 204.261 496.752 209.078 496.748 212.689C496.744 216.299 494.607 221.127 488.29 221.061C485.767 221.035 483.567 220.128 481.553 219.26L463.459 211.461C461.068 210.349 458.581 209.458 456.028 208.798C452.378 207.947 448.346 207.846 444.407 207.757L419.096 207.182C417.806 207.081 416.509 207.192 415.256 207.512C413.927 207.956 413.281 208.83 412.48 209.581C408.955 212.889 400.669 214.184 394.688 212.363C393.103 211.88 391.682 211.214 390.002 210.85C384.709 209.704 379.156 211.825 373.657 212.591C364.643 213.847 353.441 211.685 346.943 215.469C344.776 216.73 343.627 218.455 341.619 219.8C339.611 221.145 335.988 222.056 333.456 221.041C333.774 223.509 334.064 226.083 332.393 228.366C330.722 230.648 326.435 232.511 322.224 231.935C319.989 231.345 320.165 229.467 321.222 228.197C322.279 226.926 323.9 225.628 323.373 224.253C322.851 222.89 320.458 222.097 318.669 221.146C316.88 220.196 315.687 218.395 317.587 217.518C316.307 215.873 311.704 216.073 309.68 217.453C307.656 218.832 307.453 220.774 307.233 222.57C307.012 224.366 306.531 226.333 304.185 227.535C300.188 229.583 292.514 228.52 289.863 231.188C289.02 232.035 288.971 233.057 288.489 233.992C286.338 238.165 277.054 239.245 269.464 239.586C269.304 240.454 269.269 241.341 269.359 242.219C271.955 241.096 267.629 238.81 265.747 238.234Z" fill="#61AB43"/>
<path opacity="0.1" d="M528.657 233.468C529.111 235.742 529.528 238.153 527.83 240.226C527.578 240.526 527.292 240.795 526.979 241.031C529.265 240.956 531.55 240.881 533.835 240.807C534.609 237.298 535.383 233.79 536.157 230.282C534.384 231.723 531.441 232.439 528.403 232.506C528.511 232.82 528.596 233.141 528.657 233.468Z" fill="black"/>
<path opacity="0.1" d="M530.654 245.865C530.384 244.443 528.037 242.999 525.409 241.967C523.096 243.065 520.465 243.296 517.996 242.617C519.914 245.337 525.789 246.528 530.654 245.865Z" fill="black"/>
<path opacity="0.1" d="M534.012 253.534C533.953 253.803 533.894 254.071 533.835 254.339C530.229 254.457 526.624 254.575 523.019 254.693C527.548 255.975 532.854 258.865 529.759 261.149C528.996 261.712 527.816 262.078 527.203 262.698C526.045 263.87 527.494 265.398 529.5 266.103C531.507 266.808 533.931 266.982 536.147 267.439C541.248 268.49 545.197 271.188 546.108 274.242C546.524 275.638 546.368 277.123 547.439 278.4C548.925 280.173 552.34 281.079 554.94 282.366C555.19 282.49 555.431 282.62 555.667 282.753C558.017 281.424 559.707 279.711 560.352 277.856C561.489 274.589 559.345 271.015 554.94 268.834C552.34 267.546 548.925 266.641 547.439 264.868C546.368 263.591 546.524 262.106 546.108 260.71C545.197 257.655 541.248 254.958 536.147 253.906C535.449 253.763 534.731 253.647 534.012 253.534Z" fill="black"/>
<path opacity="0.1" d="M217.123 302.003C217.965 300.211 220.116 298.62 223.207 298.01C220.254 297.397 217.471 296.143 215.057 294.336C213.793 294.373 212.531 294.215 211.315 293.868C209.207 295.808 210.446 298.469 213.119 300.166C214.38 300.928 215.723 301.544 217.123 302.003Z" fill="black"/>
<path opacity="0.1" d="M236.202 249.546C237.742 248.97 239.32 248.5 240.925 248.14C245.775 247.022 251.484 245.759 252.895 242.881C253.348 241.959 253.295 240.935 254.171 240.118C255.874 238.531 260.524 238.731 262.454 240.232C264.384 241.732 263.9 243.919 262.103 245.473C261.17 246.278 259.884 247.028 259.714 247.989C259.394 249.798 262.943 250.907 265.747 251.766C267.067 252.191 268.303 252.842 269.399 253.691C269.423 253.5 269.446 253.308 269.464 253.118C277.054 252.778 286.338 251.697 288.489 247.525C288.971 246.59 289.021 245.568 289.863 244.72C292.514 242.053 300.188 243.115 304.185 241.067C306.531 239.865 307.012 237.898 307.233 236.102C307.453 234.307 307.656 232.364 309.68 230.985C311.705 229.606 316.307 229.405 317.587 231.05C315.687 231.927 316.88 233.728 318.669 234.679C320.458 235.629 322.851 236.422 323.374 237.786C323.901 239.16 322.279 240.458 321.222 241.729C320.165 243 319.989 244.877 322.224 245.468C326.435 246.043 330.722 244.181 332.393 241.898C334.064 239.616 333.775 237.041 333.456 234.574C335.988 235.589 339.611 234.677 341.619 233.332C343.627 231.988 344.776 230.263 346.943 229.001C353.441 225.217 364.643 227.379 373.657 226.123C379.156 225.357 384.709 223.236 390.002 224.383C391.682 224.746 393.103 225.412 394.688 225.895C400.669 227.717 408.955 226.421 412.48 223.114C413.281 222.362 413.927 221.488 415.256 221.044C416.509 220.724 417.806 220.613 419.096 220.714C427.533 220.906 435.97 221.097 444.407 221.289C448.346 221.379 452.378 221.479 456.028 222.33C458.581 222.99 461.068 223.881 463.459 224.993C469.49 227.593 475.522 230.193 481.553 232.793C483.567 233.661 485.767 234.568 488.29 234.594C494.607 234.66 496.744 229.832 496.748 226.221C496.752 222.611 498.517 217.793 504.829 217.636C511.192 217.477 513.899 222.37 519.491 224.111C521.861 224.849 525.371 225.521 524.98 227.047C524.799 227.756 523.696 228.379 523.707 229.056C525.282 228.685 526.714 227.865 527.83 226.694C529.528 224.621 529.111 222.21 528.657 219.936C528.615 219.371 528.426 218.826 528.11 218.356C527.794 217.886 527.362 217.505 526.855 217.251C525.796 216.747 524.109 216.537 523.762 215.775C523.408 214.997 524.777 214.31 524.98 213.515C525.371 211.989 521.861 211.317 519.491 210.579C513.899 208.837 511.192 203.944 504.829 204.103C498.517 204.261 496.752 209.078 496.748 212.689C496.744 216.299 494.607 221.127 488.29 221.062C485.767 221.035 483.567 220.129 481.553 219.26C475.522 216.66 469.49 214.061 463.459 211.461C461.068 210.349 458.581 209.458 456.028 208.798C452.378 207.947 448.346 207.846 444.407 207.757C435.97 207.565 427.533 207.373 419.096 207.182C417.806 207.081 416.509 207.192 415.256 207.512C413.927 207.956 413.281 208.83 412.48 209.582C408.955 212.889 400.669 214.185 394.688 212.363C393.103 211.88 391.682 211.214 390.002 210.85C384.709 209.704 379.156 211.825 373.657 212.591C364.643 213.847 353.441 211.685 346.943 215.469C344.776 216.731 343.627 218.456 341.619 219.8C339.611 221.145 335.988 222.056 333.456 221.041C333.775 223.509 334.064 226.083 332.393 228.366C330.722 230.648 326.435 232.511 322.224 231.935C319.989 231.345 320.165 229.467 321.222 228.197C322.279 226.926 323.901 225.628 323.374 224.253C322.851 222.89 320.458 222.097 318.669 221.147C316.88 220.196 315.687 218.395 317.587 217.518C316.307 215.873 311.705 216.073 309.68 217.453C307.656 218.832 307.454 220.774 307.233 222.57C307.012 224.366 306.531 226.333 304.185 227.535C300.188 229.583 292.514 228.52 289.863 231.188C289.021 232.035 288.971 233.058 288.489 233.992C286.338 238.165 277.054 239.245 269.464 239.586C269.446 239.776 269.423 239.967 269.399 240.159C268.303 239.31 267.067 238.659 265.747 238.234C262.943 237.375 259.394 236.266 259.714 234.457C259.884 233.496 261.17 232.746 262.103 231.94C263.9 230.387 264.384 228.199 262.454 226.699C260.524 225.199 255.874 224.998 254.171 226.586C253.295 227.403 253.348 228.427 252.895 229.349C251.484 232.226 245.775 233.49 240.925 234.608C236.075 235.725 230.649 237.805 231.105 240.782C231.594 243.978 238.84 246.818 236.202 249.546Z" fill="black"/>
<path opacity="0.1" d="M223.207 284.478C221.874 284.724 220.599 285.223 219.453 285.947C220.18 285.979 220.903 286.026 221.598 286.071C229.705 286.588 239.934 284.826 241.193 280.221C241.827 277.897 239.874 275.626 237.979 273.539C237.217 272.7 236.455 271.861 235.693 271.022C231.726 272.369 226.306 272.839 221.598 272.538C218.629 272.349 215.14 272.089 213.099 273.336C211.527 274.297 211.53 275.794 212.052 277.075C213.397 280.373 217.7 283.228 223.207 284.478Z" fill="black"/>
<path d="M388.327 263.42C432.918 263.42 469.066 239.574 469.066 210.159C469.066 180.745 432.918 156.899 388.327 156.899C343.736 156.899 307.588 180.745 307.588 210.159C307.588 239.574 343.736 263.42 388.327 263.42Z" fill="#EA565C"/>
<path opacity="0.2" d="M360.876 206.394C360.876 206.394 324.274 210.159 335.039 194.558C345.805 178.957 359.261 173.577 365.72 177.881C372.179 182.184 374.871 194.02 373.794 194.02C372.718 194.02 357.108 184.874 351.725 191.868C346.343 198.862 360.876 206.394 360.876 206.394Z" fill="white"/>
<path opacity="0.2" d="M392.591 207.918C392.591 207.918 422.816 228.891 404.48 233.72C386.144 238.548 372.427 233.869 370.332 226.398C368.236 218.927 373.908 208.195 374.725 208.896C375.541 209.597 381.424 226.699 390.066 224.897C398.708 223.095 392.591 207.918 392.591 207.918Z" fill="white"/>
<path opacity="0.2" d="M399.647 194.775C399.647 194.775 402.032 158.076 415.629 171.285C429.226 184.495 432.291 198.653 426.968 204.301C421.646 209.949 409.521 210.629 409.7 209.568C409.88 208.507 421.504 194.648 415.502 188.178C409.499 181.708 399.647 194.775 399.647 194.775Z" fill="white"/>
<path d="M290.902 259.116C335.493 259.116 371.641 235.27 371.641 205.856C371.641 176.441 335.493 152.595 290.902 152.595C246.311 152.595 210.163 176.441 210.163 205.856C210.163 235.27 246.311 259.116 290.902 259.116Z" fill="#EA565C"/>
<path opacity="0.2" d="M263.451 202.09C263.451 202.09 226.849 205.856 237.614 190.254C248.38 174.653 261.836 169.273 268.295 173.577C274.754 177.88 277.446 189.716 276.369 189.716C275.293 189.716 259.683 180.57 254.3 187.564C248.918 194.558 263.451 202.09 263.451 202.09Z" fill="white"/>
<path opacity="0.2" d="M295.165 203.615C295.165 203.615 325.39 224.588 307.054 229.416C288.718 234.244 275.002 229.565 272.906 222.094C270.811 214.623 276.483 203.891 277.299 204.592C278.116 205.293 283.999 222.395 292.641 220.593C301.283 218.791 295.165 203.615 295.165 203.615Z" fill="white"/>
<path opacity="0.2" d="M302.221 190.471C302.221 190.471 304.607 153.772 318.204 166.982C331.801 180.191 334.865 194.349 329.543 199.997C324.22 205.645 312.096 206.325 312.275 205.264C312.455 204.203 324.079 190.344 318.076 183.874C312.074 177.404 302.221 190.471 302.221 190.471Z" fill="white"/>
<path opacity="0.1" d="M332.919 160.529C350.506 170.299 361.684 184.929 361.684 201.283C361.684 230.697 325.535 254.543 280.944 254.543C265.665 254.543 251.378 251.742 239.196 246.878C253.241 254.681 271.372 259.385 291.171 259.385C335.762 259.385 371.91 235.539 371.91 206.124C371.91 186.789 356.29 169.86 332.919 160.529Z" fill="black"/>
<path opacity="0.1" d="M430.344 164.295C447.931 174.065 459.109 188.694 459.109 205.049C459.109 234.463 422.96 258.309 378.369 258.309C363.09 258.309 348.803 255.508 336.621 250.644C350.666 258.447 368.797 263.15 388.596 263.15C433.187 263.15 469.336 239.305 469.336 209.89C469.336 190.555 453.715 173.626 430.344 164.295Z" fill="black"/>
<path d="M241.835 195.652C241.835 195.652 311.271 121.411 481.361 152.076C615.819 176.317 505.406 218.039 453.244 234.456C438.11 239.218 422.433 242.039 406.588 242.852C347.742 245.881 199.724 248.589 241.835 195.652Z" fill="#714B4F"/>
<path opacity="0.1" d="M453.244 217.779C438.11 222.54 422.433 225.361 406.588 226.175C358.916 228.628 252.729 230.869 236.506 203.489C216.02 247.745 351.035 245.173 406.588 242.314C422.433 241.501 438.11 238.68 453.244 233.918C491.478 221.885 561.003 196.256 542.458 173.881C529.972 191.44 482.468 208.581 453.244 217.779Z" fill="black"/>
<path opacity="0.1" d="M390.126 152.345L408.965 189.465" stroke="black" stroke-width="2" stroke-miterlimit="10"/>
<path opacity="0.1" d="M331.994 165.794L348.142 196.997" stroke="black" stroke-width="2" stroke-miterlimit="10"/>
<path opacity="0.1" d="M424.036 152.345L449.334 189.465" stroke="black" stroke-width="2" stroke-miterlimit="10"/>
<path opacity="0.1" d="M331.994 200.225L501.546 178.706" stroke="black" stroke-width="2" stroke-miterlimit="10"/>
<path opacity="0.1" d="M495.087 159.339L506.928 176.016" stroke="black" stroke-width="2" stroke-miterlimit="10"/>
<path opacity="0.1" d="M298.621 178.706L306.157 194.307" stroke="black" stroke-width="2" stroke-miterlimit="10"/>
<path d="M323.931 128.164C323.931 128.164 478.766 127.464 480.187 126.064C481.607 124.664 514.279 123.922 520.672 133.023C527.064 142.125 529.195 146.326 520.672 147.726C512.148 149.126 231.598 292.651 231.598 292.651C231.598 292.651 215.972 294.052 223.785 278.649C231.598 263.246 323.931 128.164 323.931 128.164Z" fill="#F6C964"/>
<path d="M388.935 192.181C388.935 197.975 360.981 212.086 326.497 212.086C292.013 212.086 264.059 197.975 264.059 192.181C264.059 186.387 292.013 184.111 326.497 184.111C360.981 184.111 388.935 186.387 388.935 192.181Z" fill="#61AB43"/>
<path d="M326.497 202.403C360.981 202.403 388.935 197.706 388.935 191.912C388.935 186.118 360.981 181.422 326.497 181.422C292.013 181.422 264.059 186.118 264.059 191.912C264.059 197.706 292.013 202.403 326.497 202.403Z" fill="#61AB43"/>
<path d="M464.292 182.497C464.292 188.291 436.337 202.403 401.853 202.403C367.37 202.403 339.415 188.291 339.415 182.497C339.415 176.704 367.37 174.428 401.853 174.428C436.337 174.428 464.292 176.704 464.292 182.497Z" fill="#61AB43"/>
<path d="M401.853 192.719C436.337 192.719 464.292 188.022 464.292 182.228C464.292 176.435 436.337 171.738 401.853 171.738C367.37 171.738 339.415 176.435 339.415 182.228C339.415 188.022 367.37 192.719 401.853 192.719Z" fill="#61AB43"/>
<path d="M539.648 172.814C539.648 178.608 511.694 192.719 477.21 192.719C442.726 192.719 414.772 178.608 414.772 172.814C414.772 167.02 442.726 164.744 477.21 164.744C511.694 164.744 539.648 167.02 539.648 172.814Z" fill="#61AB43"/>
<path d="M477.21 183.035C511.694 183.035 539.648 178.339 539.648 172.545C539.648 166.751 511.694 162.054 477.21 162.054C442.726 162.054 414.772 166.751 414.772 172.545C414.772 178.339 442.726 183.035 477.21 183.035Z" fill="#61AB43"/>
<path d="M247.262 175.794C247.262 175.794 221.582 171.616 234.72 150.725C247.859 129.834 252.278 106.415 258.011 101.183C264.421 95.3332 396.721 -7.2243 499.789 106.261C510.708 118.428 519.584 132.281 526.073 147.283C527.319 150.119 528.694 152.665 530.038 154.008C534.218 158.186 537.801 170.124 530.038 176.093C522.274 182.062 293.545 205.341 247.262 175.794Z" fill="#3A8598"/>
<path d="M367.598 88.9462C366.016 90.0461 364.15 90.6678 362.223 90.7369C359.255 90.7369 356.849 89.9352 356.849 88.9462C356.849 87.9572 359.255 87.1555 362.223 87.1555C364.15 87.2246 366.016 87.8463 367.598 88.9462Z" fill="#F2F2F2"/>
<path d="M324.6 77.6053C323.017 78.7052 321.151 79.3268 319.225 79.396C316.256 79.396 313.85 78.5942 313.85 77.6053C313.85 76.6163 316.256 75.8146 319.225 75.8146C321.151 75.8837 323.017 76.5053 324.6 77.6053Z" fill="#F2F2F2"/>
<path d="M441.406 94.1315C439.567 94.709 437.601 94.7455 435.742 94.2366C432.909 93.3508 430.851 91.8676 431.147 90.9237C431.442 89.9798 433.978 89.9328 436.812 90.8186C438.629 91.4594 440.224 92.6095 441.406 94.1315Z" fill="#F2F2F2"/>
<path d="M361.978 63.6899C360.139 64.2674 358.173 64.3039 356.314 63.795C353.481 62.9092 351.423 61.4259 351.719 60.482C352.014 59.5382 354.55 59.4911 357.383 60.377C359.201 61.0178 360.796 62.1678 361.978 63.6899Z" fill="#F2F2F2"/>
<path d="M448.573 74.434C446.734 75.0115 444.767 75.048 442.908 74.5391C440.075 73.6533 438.018 72.17 438.313 71.2262C438.609 70.2823 441.145 70.2353 443.978 71.1211C445.796 71.7619 447.391 72.912 448.573 74.434Z" fill="#F2F2F2"/>
<path d="M430.902 72.8301C429.319 73.93 427.453 74.5516 425.527 74.6208C422.558 74.6208 420.152 73.8191 420.152 72.8301C420.152 71.8411 422.558 71.0394 425.527 71.0394C427.453 71.1086 429.319 71.7302 430.902 72.8301Z" fill="#F2F2F2"/>
<path d="M379.542 62.086C377.96 63.186 376.094 63.8076 374.168 63.8767C371.199 63.8767 368.793 63.075 368.793 62.086C368.793 61.0971 371.199 60.2953 374.168 60.2953C376.094 60.3645 377.96 60.9861 379.542 62.086Z" fill="#F2F2F2"/>
<path d="M418.958 62.086C417.375 63.186 415.509 63.8076 413.583 63.8767C410.614 63.8767 408.208 63.075 408.208 62.086C408.208 61.0971 410.614 60.2953 413.583 60.2953C415.509 60.3645 417.375 60.9861 418.958 62.086Z" fill="#F2F2F2"/>
<path d="M404.028 85.3649C402.445 86.4648 400.579 87.0865 398.653 87.1556C395.684 87.1556 393.278 86.3539 393.278 85.3649C393.278 84.3759 395.684 83.5742 398.653 83.5742C400.579 83.6433 402.445 84.265 404.028 85.3649Z" fill="#F2F2F2"/>
<path d="M360.602 81.1817C361.05 79.3079 362.028 77.6025 363.419 76.2691C365.634 74.2938 367.964 73.2908 368.623 74.0287C369.281 74.7667 368.02 76.9661 365.805 78.9414C364.321 80.1716 362.515 80.9493 360.602 81.1817Z" fill="#F2F2F2"/>
<path d="M333.728 74.6159C334.176 72.7421 335.154 71.0367 336.545 69.7033C338.76 67.728 341.09 66.725 341.749 67.4629C342.407 68.2009 341.146 70.4003 338.931 72.3756C337.447 73.6058 335.641 74.3835 333.728 74.6159Z" fill="#F2F2F2"/>
<path d="M287.146 106.848C287.594 104.974 288.572 103.269 289.963 101.936C292.178 99.9603 294.508 98.9573 295.167 99.6952C295.825 100.433 294.564 102.633 292.349 104.608C290.865 105.838 289.059 106.616 287.146 106.848Z" fill="#F2F2F2"/>
<path d="M390.462 71.0345C390.91 69.1607 391.888 67.4553 393.28 66.1218C395.495 64.1466 397.824 63.1436 398.483 63.8815C399.142 64.6194 397.88 66.8189 395.665 68.7941C394.182 70.0244 392.375 70.8021 390.462 71.0345Z" fill="#F2F2F2"/>
<path d="M379.712 92.5226C380.16 90.6488 381.139 88.9434 382.53 87.61C384.745 85.6348 387.074 84.6317 387.733 85.3697C388.392 86.1076 387.13 88.3071 384.915 90.2823C383.432 91.5126 381.626 92.2903 379.712 92.5226Z" fill="#F2F2F2"/>
<path d="M578.082 326.43C578.082 326.43 569.906 328.882 565.817 333.785C565.817 333.785 558.458 337.054 553.961 336.237C549.464 335.42 541.287 343.592 547.829 346.044C554.37 348.496 594.436 355.034 595.254 352.991C596.071 350.948 596.071 330.108 596.071 330.108L578.082 326.43Z" fill="#4C7580"/>
<path d="M642.312 322.921C642.312 322.921 634.674 326.733 631.484 332.262C631.484 332.262 624.792 336.739 620.221 336.702C615.65 336.664 608.99 346.113 615.854 347.412C622.719 348.711 663.313 348.313 663.77 346.16C664.226 344.007 660.665 323.474 660.665 323.474L642.312 322.921Z" fill="#4C7580"/>
<path d="M591.37 45.9103C601.53 45.9103 609.767 37.6777 609.767 27.5223C609.767 17.3668 601.53 9.13422 591.37 9.13422C581.209 9.13422 572.972 17.3668 572.972 27.5223C572.972 37.6777 581.209 45.9103 591.37 45.9103Z" fill="#FFB9B9"/>
<path d="M606.292 30.5869C606.292 30.5869 608.336 44.4801 612.016 46.1146C614.576 47.3741 616.921 49.0289 618.966 51.0181L608.745 55.9216L588.712 54.6957C588.712 54.6957 590.348 45.706 587.486 41.2111C584.624 36.7163 606.292 30.5869 606.292 30.5869Z" fill="#FFB9B9"/>
<path d="M644.314 96.3752C644.314 96.3752 653.717 120.484 644.314 143.776C634.911 167.067 630.822 170.745 630.822 170.745L627.96 140.098L631.251 137.114C631.251 137.114 633.244 127.816 631.624 122.311C630.005 116.806 632.458 99.6442 632.458 99.6442L644.314 96.3752Z" fill="#FFB9B9"/>
<path d="M573.994 148.679C573.994 148.679 562.138 175.648 563.364 188.724C564.591 201.8 573.994 256.964 573.994 256.964C573.994 256.964 572.768 328.065 576.447 328.065C580.127 328.065 597.707 334.603 597.707 330.108C597.707 325.613 601.386 217.736 601.386 217.736C601.386 217.736 622.237 265.137 624.281 268.814C626.325 272.492 639.408 330.108 643.905 330.108C648.402 330.108 662.303 326.022 661.076 323.161C659.85 320.301 645.949 256.556 638.181 240.211C630.413 223.866 632.049 162.164 632.049 162.164L618.966 133.56L573.994 148.679Z" fill="#194D5A"/>
<path d="M585.85 19.1455C585.85 19.1455 574.403 18.3282 573.585 15.4678C572.768 12.6075 571.132 10.1557 571.95 10.1557C572.768 10.1557 573.176 8.11263 573.176 8.11263C573.176 8.11263 573.994 7.70401 574.403 8.11263C574.812 8.52125 575.221 5.25226 575.221 5.25226C575.221 5.25226 575.629 4.0264 576.038 4.84365C576.447 5.6609 576.447 5.25226 576.856 4.0264C577.265 2.80053 579.309 1.98329 579.309 1.98329C579.309 1.98329 587.077 2.39191 588.303 0.757417C589.53 -0.877072 603.43 0.348785 606.292 2.3919C609.154 4.43502 621.828 11.7902 619.784 17.9196C617.74 24.0489 610.38 37.5335 610.38 39.5766C610.38 41.6197 607.519 41.2111 606.701 39.168C605.883 37.1249 599.342 34.6731 599.342 33.4473C599.342 32.2214 595.662 20.78 593.618 21.5972C591.574 22.4145 589.121 28.9524 588.303 27.7266C587.486 26.5007 585.85 19.1455 585.85 19.1455Z" fill="#3F3D56"/>
<path d="M642.27 75.1269C642.27 75.1269 625.508 50.6095 620.602 49.3836C615.696 48.1577 604.657 44.8887 604.657 44.8887C604.657 44.8887 593.618 46.5232 590.348 48.1577C587.077 49.7922 574.812 52.6526 574.403 57.5561C573.994 62.4595 577.674 109.451 575.63 113.946C573.586 118.441 566.635 161.346 569.906 160.529C573.177 159.712 570.724 149.088 585.033 148.679C599.342 148.27 607.11 139.689 612.425 149.905C617.74 160.121 632.867 167.884 632.867 167.884C633.247 164.59 633.793 161.317 634.502 158.077C635.729 152.357 631.231 138.463 631.231 138.463C631.231 138.463 631.64 106.182 633.276 102.505C634.911 98.827 642.27 75.1269 642.27 75.1269Z" fill="#FF8A00"/>
<path d="M636.137 74.3096L642.27 75.1268C642.27 75.1268 641.861 83.2993 643.496 85.751C645.132 88.2028 647.994 100.87 646.358 101.279C644.723 101.687 630.005 104.139 630.005 104.139L629.187 85.3424L636.137 74.3096Z" fill="#FF8A00"/>
<path d="M569.906 89.02C569.906 89.02 565.817 115.581 563.773 118.85C561.729 122.119 551.508 167.884 551.508 167.884C551.508 167.884 534.701 191.245 542.877 190.837C551.054 190.428 559.685 169.519 559.685 169.519C559.685 169.519 585.033 123.344 585.033 118.441C585.033 113.537 591.165 89.02 591.165 89.02L569.906 89.02Z" fill="#FFB9B9"/>
<path d="M581.762 53.0612L574.403 55.9216C574.403 55.9216 565 89.4287 567.044 92.2891C569.088 95.1494 593.618 91.0632 594.027 89.8373C594.436 88.6115 589.53 53.0612 581.762 53.0612Z" fill="#FF8A00"/>
<path d="M65.2588 274.812C65.2588 314.625 90.2483 346.841 121.131 346.841L65.2588 274.812Z" fill="#3A8598"/>
<path d="M121.131 346.841C121.131 306.581 149.017 274.002 183.48 274.002L121.131 346.841Z" fill="#3A8598" fill-opacity="0.65"/>
<path d="M85.5022 278.421C85.5022 316.239 101.438 346.841 121.131 346.841L85.5022 278.421Z" fill="#3A8598" fill-opacity="0.65"/>
<path d="M121.131 346.841C121.131 295.397 153.363 253.77 193.197 253.77L121.131 346.841Z" fill="#3A8598"/>
<path d="M109.376 347.349C109.376 347.349 117.3 347.105 119.688 345.405C122.076 343.706 131.876 341.676 132.469 344.402C133.061 347.128 144.376 357.958 135.431 358.03C126.485 358.103 114.645 356.638 112.262 355.187C109.878 353.736 109.376 347.349 109.376 347.349Z" fill="#A8A8A8"/>
<path opacity="0.2" d="M135.59 357.082C126.645 357.154 114.805 355.689 112.421 354.238C110.606 353.133 109.883 349.168 109.641 347.338C109.473 347.345 109.376 347.349 109.376 347.349C109.376 347.349 109.878 353.736 112.262 355.187C114.645 356.638 126.485 358.103 135.431 358.03C138.013 358.01 138.905 357.091 138.856 355.731C138.497 356.553 137.512 357.066 135.59 357.082Z" fill="black"/>
</svg>
