<svg width="626" height="382" viewBox="0 0 626 382" fill="none" xmlns="http://www.w3.org/2000/svg">
<g clip-path="url(#clip0)">
<path d="M462.1 338.73C463.994 353.562 470.959 367.133 478.389 380.205C478.634 380.65 478.887 381.089 479.146 381.534H556.368C557.93 381.129 559.471 380.684 561.006 380.205C569.728 377.551 577.963 373.502 585.389 368.216C613.799 347.757 624.731 309.098 619.793 274.457C616.723 252.935 607.273 230.962 588.871 219.371C579.156 213.24 566.675 211.247 555.491 213.526C555.198 213.579 554.906 213.645 554.607 213.705C544.984 215.87 536.411 221.251 531.533 229.919C522.761 245.496 527.985 264.792 532.297 282.129C536.597 299.466 538.93 320.217 526.449 333.004C530.57 320.881 526.503 306.421 516.661 298.224C509.224 292.04 498.87 289.722 489.427 291.641C488.523 291.834 487.633 292.053 486.755 292.319C484.635 292.939 482.591 293.795 480.661 294.869C465.942 303.086 459.98 322.011 462.1 338.73Z" fill="#F2F2F2"/>
<path d="M507.888 380.205C505.749 380.704 503.602 381.142 501.442 381.534H513.118C514.647 381.122 516.169 380.684 517.677 380.205C520.993 379.169 524.259 377.98 527.473 376.638C540.365 371.231 552.241 363.114 561.226 352.314C565.62 347.081 569.208 341.222 571.872 334.93C574.76 327.819 576.596 320.325 577.321 312.685C578.949 297.008 577.288 280.9 574.185 265.503C570.982 249.545 565.812 234.045 558.793 219.358C557.949 217.598 557.077 215.848 556.175 214.11C556.113 213.967 556.019 213.84 555.901 213.739C555.782 213.637 555.642 213.565 555.491 213.526C555.184 213.466 554.866 213.531 554.607 213.705C554.296 213.883 554.065 214.175 553.962 214.518C553.859 214.862 553.893 215.232 554.055 215.552C561.292 229.657 566.777 244.594 570.39 260.03C573.925 275.088 575.932 290.844 575.248 306.328C574.597 320.795 570.815 335.023 562.236 346.853C554.401 357.654 543.582 366.17 531.613 371.969C524.037 375.592 516.079 378.354 507.888 380.205Z" fill="white"/>
<path d="M482.263 381.534H485.705C486.091 381.095 486.463 380.65 486.828 380.205C494.67 370.683 499.982 359.337 502.273 347.219C505.056 332.095 502.891 316.478 496.099 302.681C494.204 298.812 491.972 295.118 489.427 291.641C488.523 291.834 487.633 292.053 486.756 292.319C493.449 301.182 497.95 311.502 499.894 322.436C501.627 332.681 501.051 343.184 498.207 353.178C495.362 363.173 490.322 372.406 483.452 380.205C483.067 380.65 482.668 381.095 482.263 381.534Z" fill="white"/>
<path d="M172.154 370.237C171.654 374.152 169.816 377.733 167.855 381.183C167.79 381.301 167.724 381.416 167.655 381.534H147.275C146.863 381.427 146.456 381.31 146.051 381.183C143.749 380.483 141.576 379.414 139.616 378.019C132.118 372.62 129.233 362.417 130.536 353.274C131.346 347.594 133.84 341.795 138.697 338.736C141.334 337.131 144.48 336.58 147.507 337.193C147.584 337.208 147.661 337.225 147.74 337.241C149 337.484 150.193 337.991 151.243 338.729C152.292 339.466 153.174 340.418 153.829 341.52C156.144 345.631 154.766 350.724 153.628 355.299C152.493 359.875 151.877 365.351 155.171 368.726C154.688 367.315 154.59 365.8 154.887 364.339C155.184 362.877 155.865 361.521 156.86 360.409C157.855 359.297 159.128 358.471 160.548 358.014C161.969 357.557 163.485 357.487 164.942 357.81C165.18 357.86 165.416 357.918 165.647 357.988C166.207 358.152 166.746 358.378 167.255 358.662C171.14 360.83 172.713 365.825 172.154 370.237Z" fill="#F2F2F2"/>
<path d="M160.07 381.183C160.634 381.315 161.201 381.431 161.771 381.534H158.689C158.286 381.425 157.884 381.31 157.486 381.183C156.611 380.91 155.749 380.596 154.901 380.242C151.46 378.846 148.405 376.644 145.993 373.822C144.833 372.441 143.886 370.895 143.183 369.234C142.421 367.358 141.936 365.38 141.745 363.363C141.395 359.195 141.674 354.997 142.573 350.911C143.418 346.7 144.783 342.609 146.635 338.733C146.858 338.268 147.088 337.806 147.326 337.348C147.342 337.31 147.367 337.276 147.398 337.25C147.43 337.223 147.467 337.204 147.507 337.193C147.588 337.178 147.671 337.195 147.74 337.241C147.822 337.288 147.883 337.365 147.91 337.455C147.937 337.546 147.928 337.644 147.885 337.728C145.976 341.451 144.528 345.393 143.574 349.467C142.592 353.462 142.161 357.573 142.292 361.686C142.362 365.51 143.557 369.23 145.726 372.381C147.836 375.219 150.612 377.495 153.808 379.01C155.808 379.966 157.908 380.695 160.07 381.183Z" fill="white"/>
<path d="M166.833 381.534H165.924C165.822 381.418 165.724 381.301 165.628 381.183C163.558 378.67 162.156 375.676 161.552 372.478C160.817 368.486 161.389 364.365 163.181 360.723C163.681 359.702 164.27 358.727 164.942 357.81C165.181 357.86 165.416 357.918 165.647 357.988C163.881 360.328 162.693 363.051 162.18 365.937C161.722 368.641 161.874 371.413 162.625 374.05C163.376 376.688 164.706 379.125 166.519 381.183C166.62 381.301 166.726 381.418 166.833 381.534Z" fill="white"/>
<path d="M355.851 280.355H419.636L420.312 260.753C420.341 259.903 420.186 259.057 419.857 258.273C419.528 257.489 419.032 256.786 418.405 256.211C417.778 255.637 417.034 255.205 416.223 254.946C415.413 254.686 414.557 254.606 413.712 254.709L376.594 259.252H376.589C371.086 259.267 365.814 261.461 361.926 265.355C358.039 269.248 355.854 274.523 355.851 280.023V280.355Z" fill="#DBDBDB"/>
<path d="M384.28 210.822H428.767C429.358 210.822 429.944 210.938 430.491 211.165C431.038 211.391 431.534 211.723 431.953 212.141C432.371 212.559 432.703 213.055 432.929 213.602C433.155 214.148 433.272 214.734 433.272 215.325V259.791C433.272 260.383 433.155 260.968 432.929 261.515C432.703 262.061 432.371 262.557 431.953 262.976C431.534 263.394 431.038 263.725 430.491 263.952C429.944 264.178 429.358 264.294 428.767 264.294H384.28C383.688 264.294 383.102 264.178 382.556 263.952C382.009 263.725 381.512 263.394 381.094 262.976C380.676 262.557 380.344 262.061 380.117 261.515C379.891 260.968 379.775 260.383 379.775 259.791V215.325C379.775 214.734 379.891 214.148 380.117 213.602C380.344 213.055 380.676 212.559 381.094 212.141C381.512 211.723 382.009 211.391 382.556 211.165C383.102 210.938 383.688 210.822 384.28 210.822Z" fill="#3A8598"/>
<path d="M394.299 244.072L415.303 248.161C416.549 248.402 417.84 248.139 418.892 247.43C419.944 246.721 420.672 245.624 420.916 244.379L422.531 236.092C422.772 234.846 422.509 233.556 421.8 232.505C421.091 231.453 419.993 230.725 418.748 230.481L397.744 226.393C396.498 226.152 395.207 226.415 394.155 227.123C393.102 227.832 392.374 228.93 392.13 230.174L390.516 238.462C390.274 239.707 390.537 240.997 391.247 242.049C391.956 243.101 393.054 243.828 394.299 244.072Z" fill="#6DA5B3"/>
<path d="M398.501 234.282L414.531 237.402C414.824 237.459 415.128 237.397 415.376 237.23C415.623 237.063 415.794 236.805 415.852 236.512C415.909 236.219 415.847 235.915 415.68 235.668C415.513 235.42 415.255 235.249 414.961 235.192L398.932 232.072C398.639 232.015 398.335 232.076 398.087 232.243C397.839 232.41 397.668 232.668 397.611 232.962C397.554 233.255 397.616 233.558 397.783 233.806C397.949 234.053 398.208 234.225 398.501 234.282Z" fill="white"/>
<path d="M401.617 238.902L409.908 240.516C410.201 240.573 410.505 240.511 410.753 240.345C411.001 240.178 411.172 239.919 411.229 239.626C411.286 239.333 411.224 239.029 411.057 238.782C410.89 238.534 410.632 238.363 410.339 238.306L402.048 236.692C401.902 236.664 401.753 236.665 401.608 236.694C401.463 236.723 401.326 236.781 401.203 236.864C401.08 236.946 400.975 237.052 400.893 237.176C400.812 237.299 400.755 237.437 400.727 237.582C400.699 237.727 400.699 237.876 400.729 238.021C400.758 238.166 400.816 238.304 400.898 238.426C400.981 238.549 401.087 238.654 401.21 238.736C401.334 238.817 401.472 238.874 401.617 238.902Z" fill="white"/>
<path d="M379.775 215.325V221.235H433.272V215.325C433.272 214.734 433.155 214.148 432.929 213.602C432.703 213.055 432.371 212.559 431.953 212.141C431.534 211.723 431.038 211.391 430.491 211.165C429.944 210.938 429.358 210.822 428.767 210.822H384.28C383.688 210.822 383.102 210.938 382.556 211.165C382.009 211.391 381.512 211.723 381.094 212.141C380.676 212.559 380.344 213.055 380.117 213.602C379.891 214.148 379.775 214.734 379.775 215.325Z" fill="#194D5A"/>
<path d="M272.947 223.086C273.256 222.089 273.779 221.173 274.481 220.4C275.183 219.628 276.045 219.019 277.008 218.616C277.97 218.213 279.01 218.026 280.053 218.067C281.096 218.109 282.117 218.379 283.044 218.858L344.247 196.91L346.943 212.192L285.934 228.961C285.026 230.465 283.598 231.583 281.92 232.104C280.242 232.626 278.431 232.514 276.83 231.789C275.229 231.065 273.949 229.779 273.234 228.175C272.518 226.571 272.416 224.76 272.947 223.086Z" fill="#FFB8B8"/>
<path opacity="0.2" d="M272.947 223.086C273.256 222.089 273.779 221.173 274.481 220.4C275.183 219.628 276.045 219.019 277.008 218.616C277.97 218.213 279.01 218.026 280.053 218.067C281.096 218.109 282.117 218.379 283.044 218.858L344.247 196.91L346.943 212.192L285.934 228.961C285.026 230.465 283.598 231.583 281.92 232.104C280.242 232.626 278.431 232.514 276.83 231.789C275.229 231.065 273.949 229.779 273.234 228.175C272.518 226.571 272.416 224.76 272.947 223.086Z" fill="black"/>
<path d="M333.384 199.694L339.163 214.786C339.328 215.216 339.583 215.605 339.911 215.926C340.24 216.248 340.634 216.496 341.066 216.652C341.499 216.808 341.96 216.869 342.419 216.831C342.877 216.793 343.322 216.656 343.723 216.431L357.769 208.529C359.962 207.675 361.727 205.987 362.677 203.835C363.627 201.683 363.684 199.242 362.836 197.048C361.989 194.853 360.305 193.084 358.154 192.129C356.004 191.173 353.562 191.109 351.364 191.95L335.679 195.427C335.23 195.527 334.808 195.722 334.441 196C334.074 196.277 333.772 196.63 333.554 197.035C333.336 197.44 333.208 197.887 333.179 198.346C333.149 198.805 333.219 199.265 333.384 199.694Z" fill="#FF8A00"/>
<path d="M268.129 237.06L290.06 247.024L287.18 257.858C281.62 278.78 280.145 300.577 282.834 322.058L266.8 325.405L253.509 291.528L258.161 253.002L268.129 237.06Z" fill="#3A8598" fill-opacity="0.74"/>
<path d="M225.099 287.211C239.508 287.211 251.251 297.681 251.82 310.792H198.378C198.948 297.681 210.69 287.211 225.099 287.211Z" fill="#3A8598"/>
<path d="M236.316 289.47C237.066 230.287 270.788 235.731 270.788 235.731C270.788 235.731 270.157 254.153 269.854 254.726C248.365 295.365 283.829 343.007 328.973 334.243C329.824 334.077 330.642 333.91 331.426 333.74C337.146 332.546 342.196 329.219 345.549 324.436C348.903 319.653 350.307 313.773 349.477 307.992C345.03 272.298 367.148 272.929 367.148 272.929H399.49L416.286 257.82C416.879 257.287 417.593 256.907 418.367 256.714C419.141 256.52 419.95 256.519 420.724 256.71C421.498 256.902 422.214 257.28 422.808 257.812C423.403 258.343 423.857 259.013 424.133 259.761L426.294 265.623C426.294 265.623 458.193 268.944 455.535 300.164H445.673C445.696 301.051 445.661 301.938 445.566 302.821L371.966 302.222C367.652 302.187 363.843 305.682 363.826 309.994C363.821 311.044 364.029 312.084 364.436 313.052C364.843 314.02 365.441 314.895 366.194 315.627C366.948 316.358 367.841 316.93 368.821 317.309C369.8 317.687 370.847 317.864 371.896 317.829L383.762 317.434C387.417 333.708 378.446 344.668 368.561 351.56C359.253 357.954 348.209 361.345 336.916 361.274H304.68C262.813 361.274 255.503 326.069 255.503 326.069C233.572 316.77 236.316 289.47 236.316 289.47Z" fill="#3A8598"/>
<path d="M227.093 380.538C206.448 380.538 189.711 363.809 189.711 343.174C189.711 322.538 206.448 305.81 227.093 305.81C247.738 305.81 264.474 322.538 264.474 343.174C264.474 363.809 247.738 380.538 227.093 380.538Z" fill="#3A8598"/>
<path d="M227.093 352.331C222.033 352.331 217.931 348.231 217.931 343.174C217.931 338.116 222.033 334.016 227.093 334.016C232.153 334.016 236.255 338.116 236.255 343.174C236.255 348.231 232.153 352.331 227.093 352.331Z" fill="white"/>
<path d="M415.827 380.538C392.062 380.538 372.797 361.281 372.797 337.527C372.797 313.774 392.062 294.517 415.827 294.517C439.592 294.517 458.857 313.774 458.857 337.527C458.857 361.281 439.592 380.538 415.827 380.538Z" fill="#3A8598"/>
<path d="M415.827 348.069C410.002 348.069 405.281 343.349 405.281 337.527C405.281 331.705 410.002 326.986 415.827 326.986C421.652 326.986 426.374 331.705 426.374 337.527C426.374 343.349 421.652 348.069 415.827 348.069Z" fill="white"/>
<path d="M289.997 249.968L297.888 228.546C298.299 227.43 298.486 226.243 298.439 225.054C298.391 223.866 298.11 222.698 297.611 221.618C297.112 220.538 296.405 219.566 295.53 218.759C294.656 217.952 293.631 217.326 292.514 216.915L269.892 208.591C267.927 207.867 265.838 207.538 263.746 207.621C261.653 207.705 259.597 208.199 257.696 209.077C255.794 209.955 254.085 211.198 252.664 212.736C251.243 214.274 250.14 216.077 249.416 218.041C248.763 219.804 248.43 221.669 248.432 223.549C248.44 225.936 248.981 228.291 250.014 230.444C251.047 232.596 252.547 234.491 254.405 235.991C255.746 237.067 257.255 237.917 258.87 238.508L289.997 249.968Z" fill="#3A8598"/>
<path d="M248.764 223.549C248.766 225.888 249.292 228.196 250.304 230.304C251.316 232.412 252.789 234.267 254.612 235.731C257.411 234.994 260.014 233.656 262.243 231.811C264.471 229.965 266.271 227.657 267.517 225.046C268.763 222.436 269.425 219.585 269.457 216.693C269.49 213.801 268.891 210.936 267.704 208.298C265.425 207.803 263.063 207.824 260.793 208.36C258.523 208.896 256.402 209.933 254.585 211.396C252.768 212.859 251.303 214.71 250.295 216.813C249.288 218.916 248.765 221.218 248.764 223.549Z" fill="#6DA5B3"/>
<path d="M449.886 304.481C444.747 304.481 440.582 299.425 440.582 293.189C440.582 286.952 444.747 281.897 449.886 281.897C455.024 281.897 459.189 286.952 459.189 293.189C459.189 299.425 455.024 304.481 449.886 304.481Z" fill="#6DA5B3"/>
<path d="M326.902 333.161H318.755L314.878 312.04L326.903 312.04L326.902 333.161Z" fill="#FFB8B8"/>
<path d="M328.98 330.502L312.935 330.501H312.935C311.592 330.501 310.262 330.766 309.022 331.279C307.781 331.793 306.654 332.546 305.704 333.495C304.755 334.444 304.002 335.57 303.488 336.81C302.974 338.05 302.709 339.379 302.709 340.722V341.054L328.98 341.055L328.98 330.502Z" fill="#4C7580"/>
<path d="M317.445 324.492C317.54 324.492 317.635 324.487 317.731 324.478L329.006 323.658C329.462 323.615 329.902 323.469 330.293 323.23C330.683 322.991 331.013 322.665 331.258 322.278C331.503 321.891 331.655 321.453 331.704 320.998C331.752 320.543 331.695 320.083 331.538 319.653L316.448 285.766C316.34 285.464 316.296 285.143 316.318 284.823C316.341 284.503 316.429 284.191 316.578 283.907C316.727 283.62 316.935 283.367 317.188 283.166C317.441 282.964 317.734 282.819 318.048 282.738C325.143 280.884 343.349 275.948 359.108 270.172C365.86 267.697 370.113 264.121 371.747 259.543C373.903 253.507 370.714 248.002 370.578 247.771L370.471 247.59L355.641 248.938L339.565 250.304L304.334 269.187C301.382 270.783 299.14 273.432 298.054 276.606C296.968 279.78 297.118 283.246 298.474 286.315L314.716 322.72C314.951 323.248 315.334 323.695 315.818 324.01C316.303 324.324 316.868 324.492 317.445 324.492Z" fill="#194D5A"/>
<path d="M353.063 181.896C344.048 181.896 336.741 174.591 336.741 165.581C336.741 156.571 344.048 149.266 353.063 149.266C362.077 149.266 369.385 156.571 369.385 165.581C369.385 174.591 362.077 181.896 353.063 181.896Z" fill="#FFB8B8"/>
<path d="M331.554 335.153H323.406L319.53 314.032L331.555 314.033L331.554 335.153Z" fill="#FFB8B8"/>
<path d="M333.632 332.495L317.587 332.494H317.586C316.244 332.494 314.914 332.758 313.673 333.272C312.433 333.786 311.306 334.538 310.356 335.487C309.407 336.436 308.653 337.563 308.14 338.803C307.626 340.043 307.361 341.372 307.361 342.714V343.046L333.632 343.047L333.632 332.495Z" fill="#4C7580"/>
<path d="M322.097 326.485C322.192 326.485 322.287 326.48 322.383 326.471L333.658 325.65C334.114 325.608 334.554 325.462 334.945 325.223C335.335 324.983 335.665 324.658 335.91 324.271C336.154 323.884 336.307 323.446 336.355 322.991C336.404 322.536 336.347 322.075 336.19 321.646L321.1 287.759C320.992 287.457 320.948 287.136 320.97 286.816C320.993 286.496 321.081 286.184 321.23 285.9C321.379 285.613 321.586 285.36 321.84 285.158C322.093 284.957 322.386 284.811 322.7 284.731C329.795 282.877 348.001 277.941 363.76 272.165C370.512 269.69 374.765 266.114 376.399 261.536C378.555 255.5 375.366 249.995 375.229 249.764L375.122 249.583L360.293 250.93L344.217 252.297L308.986 271.18C306.034 272.776 303.792 275.424 302.706 278.598C301.62 281.772 301.77 285.239 303.126 288.307L319.368 324.713C319.603 325.24 319.986 325.688 320.47 326.003C320.954 326.317 321.519 326.484 322.097 326.485Z" fill="#194D5A"/>
<path d="M348.029 191.147L365.307 185.169C365.307 185.169 376.154 193.498 370.943 214.162C368.223 224.825 369.015 236.081 373.203 246.259C373.707 247.518 374.288 248.745 374.943 249.933C374.943 249.933 355.671 273.181 337.728 255.911L344.706 222.366C344.706 222.366 333.741 200.114 348.029 191.147Z" fill="#FF8A00"/>
<path d="M351.036 182.451C353.359 178.975 355.192 174.156 352.635 170.849C350.11 167.585 345.13 168.065 341.264 166.621C335.878 164.609 332.755 158.285 333.729 152.622C334.703 146.958 339.252 142.263 344.67 140.342C350.089 138.421 356.199 139.046 361.506 141.258C368.038 143.981 373.641 149.249 375.991 155.922C378.34 162.595 377.084 170.607 372.21 175.736C366.984 181.235 358.782 182.701 351.195 182.612" fill="#3F3D56"/>
<path d="M366.219 152.803C369.147 155.185 373.613 154.127 376.755 152.037C379.897 149.947 382.447 146.97 385.847 145.331C391.841 142.441 399.087 144.362 404.921 147.563C410.754 150.763 415.925 155.185 422.087 157.697C428.249 160.208 436.112 160.333 440.778 155.59C441.926 158.915 442.02 162.513 441.046 165.894C440.073 169.274 438.08 172.272 435.339 174.478C432.598 176.685 429.243 177.992 425.732 178.222C422.22 178.453 418.723 177.594 415.717 175.764C408.966 171.654 405.236 163.035 397.664 160.766C393.473 159.51 388.974 160.522 384.739 161.617C380.504 162.712 376.088 163.895 371.814 162.963C367.54 162.031 363.542 158.192 364.086 153.853L366.219 152.803Z" fill="#3F3D56"/>
<path d="M273.759 222.421C274.188 221.471 274.821 220.626 275.613 219.946C276.404 219.266 277.336 218.768 278.341 218.486C279.346 218.205 280.4 218.147 281.43 218.318C282.46 218.488 283.439 218.881 284.3 219.471L347.746 205.238L348.534 220.736L285.922 229.854C284.835 231.234 283.279 232.167 281.55 232.478C279.82 232.788 278.037 232.453 276.538 231.537C275.038 230.621 273.927 229.187 273.415 227.507C272.903 225.827 273.025 224.017 273.759 222.421Z" fill="#FFB8B8"/>
<path d="M336.622 206.662L340.494 222.351C340.604 222.798 340.809 223.215 341.096 223.575C341.382 223.935 341.742 224.229 342.152 224.437C342.562 224.646 343.013 224.763 343.472 224.782C343.932 224.8 344.39 224.72 344.816 224.545L359.73 218.436C362.013 217.861 363.975 216.404 365.184 214.385C366.394 212.366 366.753 209.949 366.182 207.666C365.612 205.383 364.158 203.419 362.14 202.206C360.123 200.992 357.706 200.629 355.421 201.194L339.427 202.71C338.969 202.754 338.525 202.896 338.127 203.126C337.729 203.356 337.385 203.669 337.119 204.044C336.853 204.419 336.671 204.847 336.585 205.299C336.499 205.751 336.512 206.215 336.622 206.662V206.662Z" fill="#FF8A00"/>
<path d="M281.088 234.735C278.519 234.735 276.436 232.653 276.436 230.085C276.436 227.517 278.519 225.436 281.088 225.436C283.657 225.436 285.74 227.517 285.74 230.085C285.74 232.653 283.657 234.735 281.088 234.735Z" fill="#DBDBDB"/>
<path d="M75.0818 380.87C75.0823 381.046 75.1525 381.214 75.277 381.339C75.4015 381.463 75.5703 381.533 75.7463 381.534H625.335C625.512 381.534 625.681 381.464 625.805 381.339C625.93 381.215 626 381.046 626 380.87C626 380.693 625.93 380.524 625.805 380.4C625.681 380.275 625.512 380.205 625.335 380.205H75.7463C75.5703 380.206 75.4015 380.276 75.277 380.401C75.1525 380.525 75.0823 380.694 75.0818 380.87Z" fill="#3F3D56"/>
<g clip-path="url(#clip1)">
<path d="M572.094 199.44C572.512 199.982 573.284 200.082 573.826 199.664L586.401 189.971C586.943 189.553 587.043 188.782 586.625 188.24L585.894 187.291L571.363 198.491L572.094 199.44ZM569.662 181.268C566.031 184.067 563.901 188.811 566.886 192.683L581.407 181.49C578.422 177.617 573.292 178.47 569.662 181.268ZM567.93 188.792C567.848 186.463 569.789 184.257 571.154 183.204C572.519 182.152 575.147 180.836 577.378 181.509L567.93 188.792ZM568.378 194.619L582.899 183.426L584.392 185.362L569.871 196.555L568.378 194.619ZM575.881 170.317L572.896 166.444L570.96 167.937L573.945 171.809L569.104 175.54L570.819 177.305L580.074 170.171L589.166 184.769L587.82 185.806L589.313 187.742L590.978 186.459C591.791 185.832 591.974 184.688 591.459 183.819L580.721 166.586L575.881 170.317Z" fill="#3A8598" fill-opacity="0.5"/>
</g>
<path d="M166.527 223.944C166.571 224.017 166.629 224.081 166.698 224.131C166.767 224.182 166.845 224.219 166.928 224.239C167.011 224.259 167.098 224.263 167.182 224.25C167.267 224.238 167.348 224.208 167.421 224.164C167.494 224.12 167.558 224.061 167.609 223.992C167.659 223.923 167.696 223.845 167.716 223.762C167.737 223.679 167.741 223.593 167.728 223.508C167.715 223.424 167.685 223.343 167.641 223.27C167.002 222.214 165.593 221.943 164.536 222.792C164.401 222.9 164.315 223.057 164.296 223.229C164.277 223.4 164.328 223.572 164.436 223.707C164.544 223.842 164.701 223.928 164.872 223.946C165.044 223.965 165.216 223.915 165.35 223.807C165.814 223.435 166.311 223.583 166.528 223.943L166.527 223.944Z" fill="#FF8A00" fill-opacity="0.5"/>
<path d="M161.344 228.68C162.315 229.89 163.727 230.664 165.269 230.833C166.812 231.001 168.358 230.55 169.568 229.579C170.777 228.607 171.552 227.195 171.72 225.653C171.889 224.111 171.438 222.564 170.466 221.355C169.495 220.145 168.083 219.371 166.54 219.202C164.998 219.034 163.452 219.485 162.242 220.456C161.033 221.427 160.258 222.84 160.09 224.382C159.921 225.924 160.372 227.47 161.344 228.68ZM162.358 227.865C161.984 227.399 161.706 226.865 161.539 226.291C161.371 225.718 161.319 225.117 161.384 224.523C161.448 223.929 161.63 223.354 161.917 222.831C162.204 222.307 162.591 221.845 163.057 221.471C163.523 221.097 164.058 220.818 164.631 220.651C165.205 220.484 165.805 220.431 166.399 220.496C166.993 220.561 167.568 220.742 168.092 221.029C168.616 221.316 169.078 221.704 169.452 222.17C170.207 223.11 170.557 224.312 170.426 225.511C170.295 226.711 169.693 227.809 168.753 228.564C167.812 229.319 166.61 229.67 165.411 229.539C164.212 229.408 163.114 228.806 162.358 227.865Z" fill="#FF8A00" fill-opacity="0.5"/>
<path d="M175.416 219.413C176.199 220.529 176.683 221.778 176.805 222.849C177.085 225.307 176.517 226.919 176.133 227.895C175.762 228.842 174.86 230.847 173.105 232.072C172.634 232.404 172.14 232.703 171.628 232.968L171.378 233.102C171.004 233.309 170.639 233.544 169.954 234.192C169.147 234.956 168.062 235.541 166.929 235.85C165.799 236.157 164.565 236.204 163.474 235.823C161.207 235.032 159.456 233.292 158.733 230.922C158.401 229.838 158.257 229.498 158.026 229.173C157.859 228.947 157.681 228.73 157.493 228.522L157.488 228.515C157.239 228.23 156.922 227.864 156.501 227.34C154.649 225.033 154.797 222.391 155.674 220.398C156.96 217.477 160.328 214.825 164.346 215.749C165.574 216.031 165.962 216.099 166.604 216.011C167.66 215.866 168.544 215.824 169.419 215.929C170.297 216.033 171.135 216.28 172.106 216.681C173.519 217.264 174.632 218.292 175.417 219.412L175.416 219.413ZM174.351 220.16C173.678 219.198 172.747 218.354 171.608 217.884C170.71 217.514 169.99 217.307 169.265 217.221C168.538 217.135 167.774 217.164 166.782 217.3C165.875 217.424 165.272 217.297 164.056 217.017C160.808 216.271 157.974 218.402 156.864 220.923C156.131 222.587 156.039 224.686 157.515 226.525C157.921 227.03 158.227 227.382 158.472 227.664L158.488 227.684C158.723 227.956 158.923 228.185 159.09 228.423C159.453 228.938 159.648 229.461 159.977 230.542C160.574 232.5 162.012 233.935 163.903 234.594C164.682 234.867 165.638 234.853 166.588 234.593C167.536 234.336 168.424 233.85 169.059 233.248C169.816 232.53 170.269 232.227 170.75 231.962L171.032 231.811C171.386 231.622 171.762 231.422 172.36 231.005C173.78 230.015 174.566 228.327 174.923 227.42C175.266 226.542 175.759 225.156 175.512 222.997C175.418 222.171 175.027 221.126 174.352 220.159L174.351 220.16Z" fill="#FF8A00" fill-opacity="0.5"/>
<g clip-path="url(#clip2)">
<path d="M395.973 203.602C398.81 207.39 403.396 208.748 407.968 205.324C412.54 201.899 412.526 197.117 409.689 193.329L395.973 203.602Z" stroke="#FF8A00" stroke-opacity="0.5" stroke-width="2" stroke-linecap="round" stroke-linejoin="round"/>
<path d="M400.088 200.52L395.979 195.034" stroke="#FF8A00" stroke-opacity="0.5" stroke-width="2" stroke-linecap="round" stroke-linejoin="round"/>
<path d="M402.831 198.466L398.208 192.293" stroke="#FF8A00" stroke-opacity="0.5" stroke-width="2" stroke-linecap="round" stroke-linejoin="round"/>
<path d="M405.574 196.411L400.438 189.553" stroke="#FF8A00" stroke-opacity="0.5" stroke-width="2" stroke-linecap="round" stroke-linejoin="round"/>
<path d="M397.344 202.575L393.749 197.774" stroke="#FF8A00" stroke-opacity="0.5" stroke-width="2" stroke-linecap="round" stroke-linejoin="round"/>
<path d="M393.148 199.83L404.552 186.471" stroke="#FF8A00" stroke-opacity="0.5" stroke-width="2" stroke-linecap="round" stroke-linejoin="round"/>
</g>
<g clip-path="url(#clip3)">
<path d="M475.614 247.127C479.961 243.66 482.025 247.265 484.639 247.265C486.702 247.265 489.261 243.66 492.122 246.604C488.848 245.036 487.638 248.393 484.226 248.393C481.612 248.393 480.594 245.284 475.614 247.127Z" fill="#3A8598" fill-opacity="0.5"/>
<path d="M492.122 249.906C489.591 247.815 487.968 249.521 485.877 250.401C484.556 250.952 483.18 250.814 481.805 249.356C482.795 249.713 484.969 250.897 487.115 248.805C485.271 249.631 482.96 249.053 481.089 248.118C479.026 247.1 477.347 246.934 475.614 248.805C476.687 247.98 478.255 248.173 479.466 248.503C478.695 248.53 477.017 248.723 475.614 250.897C479.851 247.375 481.392 252.19 484.721 252.19C487.94 252.19 487.638 248.585 492.122 249.906Z" fill="#3A8598" fill-opacity="0.5"/>
<path d="M475.614 245.944C476.137 244.458 479.796 242.312 482.712 245.971C478.64 244.1 475.614 245.944 475.614 245.944Z" fill="#3A8598" fill-opacity="0.5"/>
<path d="M486.647 244.431C488.353 242.56 491.077 243.578 492.122 244.513C491.269 244.403 488.683 243.853 487.583 245.063C485.822 246.934 483.758 246.659 483.098 245.999C483.098 245.971 485.189 246.054 486.647 244.431Z" fill="#3A8598" fill-opacity="0.5"/>
<path d="M487.555 248.723C489.756 245.063 492.122 248.145 492.122 248.145C489.536 247.237 487.555 248.723 487.555 248.723Z" fill="#3A8598" fill-opacity="0.5"/>
</g>
</g>
<g clip-path="url(#clip4)">
<path d="M225.789 74.381C226.015 74.1063 226.123 73.753 226.089 73.3989C226.054 73.0447 225.881 72.7187 225.606 72.4926C225.331 72.2664 224.978 72.1587 224.624 72.193C224.27 72.2274 223.944 72.401 223.717 72.6757C223.491 72.9504 223.384 73.3037 223.418 73.6579C223.452 74.012 223.626 74.338 223.901 74.5641C224.175 74.7903 224.529 74.898 224.883 74.8637C225.237 74.8293 225.563 74.6557 225.789 74.381ZM232.122 70.9057C232.397 71.1318 232.57 71.4578 232.604 71.812C232.639 72.1661 232.531 72.5194 232.305 72.7941C232.079 73.0688 231.753 73.2424 231.399 73.2768C231.045 73.3111 230.691 73.2034 230.417 72.9773C230.142 72.7511 229.968 72.4251 229.934 72.071C229.899 71.7168 230.007 71.3635 230.233 71.0888C230.46 70.8141 230.786 70.6405 231.14 70.6061C231.494 70.5718 231.847 70.6795 232.122 70.9057ZM232 79.4935C232.226 79.2188 232.334 78.8655 232.299 78.5114C232.265 78.1572 232.091 77.8312 231.816 77.6051C231.542 77.3789 231.188 77.2712 230.834 77.3055C230.48 77.3399 230.154 77.5135 229.928 77.7882C229.702 78.0629 229.594 78.4162 229.629 78.7703C229.663 79.1245 229.836 79.4505 230.111 79.6766C230.386 79.9028 230.739 80.0105 231.093 79.9762C231.447 79.9418 231.773 79.7682 232 79.4935ZM215.822 73.1269C214.271 71.8505 213.965 69.4612 215.484 67.9482C220.43 63.023 227.043 60.1323 234.017 59.847C236.165 59.7559 237.716 61.6109 237.591 63.6216C237.432 66.2391 237.191 70.1386 237.057 72.3619C237.508 72.7365 237.802 72.9787 238.187 73.294L238.838 73.8295C239.103 74.0474 239.317 74.3208 239.465 74.6305C239.613 74.9401 239.691 75.2784 239.694 75.6216C239.697 75.9648 239.625 76.3044 239.483 76.6167C239.341 76.929 239.132 77.2063 238.87 77.429C239.552 78.3446 239.657 79.6963 238.795 80.7446C238.198 81.4696 237.372 81.7661 236.578 81.7162L236.44 83.9046C236.284 86.3616 233.407 87.6118 231.506 86.0444L215.823 73.1277L215.822 73.1269ZM216.905 69.3734C216.323 69.9531 216.363 70.9672 217.1 71.5742L217.639 72.0176C222.347 66.764 228.937 64.0959 235.54 64.1903L235.583 63.4971C235.64 62.5403 234.924 61.8216 234.101 61.8566C227.63 62.1219 221.494 64.8044 216.906 69.3743L216.905 69.3734ZM232.784 84.4907C233.418 85.0125 234.378 84.5964 234.429 83.7765L234.654 80.2644C234.666 80.0795 234.729 79.9015 234.836 79.7501C234.943 79.5986 235.089 79.4796 235.26 79.4061C235.43 79.3327 235.617 79.3076 235.8 79.3337C235.984 79.3598 236.156 79.436 236.299 79.554C236.579 79.7843 236.995 79.7639 237.241 79.4656C237.298 79.3978 237.341 79.3195 237.367 79.235C237.393 79.1505 237.403 79.0617 237.394 78.9736C237.386 78.8855 237.36 78.8 237.318 78.722C237.276 78.644 237.22 78.5751 237.151 78.5193L235.854 77.4518C235.648 77.2822 235.518 77.0377 235.492 76.7721C235.466 76.5064 235.547 76.2415 235.717 76.0354C235.886 75.8294 236.131 75.6992 236.397 75.6734C236.662 75.6477 236.927 75.7285 237.133 75.8981C237.278 76.0175 237.487 75.9963 237.604 75.8544C237.66 75.7857 237.687 75.6974 237.678 75.6088C237.67 75.5203 237.626 75.4388 237.558 75.3823L236.914 74.8519C236.426 74.4522 236.075 74.1651 235.376 73.5772C235.255 73.4763 235.16 73.3487 235.097 73.2045C235.035 73.0602 235.007 72.9034 235.017 72.7465C235.106 71.2529 235.268 68.6162 235.417 66.2019C232.364 66.1663 229.339 66.7808 226.541 68.0045C223.744 69.2282 221.24 71.0331 219.194 73.2993L232.784 84.4907Z" fill="#3A8598" fill-opacity="0.5"/>
</g>
<g clip-path="url(#clip5)">
<path d="M444.078 96.0544C440.826 100.722 441.974 107.14 446.641 110.392C451.309 113.644 457.727 112.496 460.979 107.829L444.078 96.0544Z" fill="white"/>
<path d="M456.316 104.581C453.065 109.248 449.264 112.219 446.641 110.392C451.308 113.644 457.727 112.496 460.979 107.829L456.316 104.581Z" fill="#3A8598" fill-opacity="0.5"/>
<path d="M444.078 96.0544C440.826 100.722 441.974 107.14 446.641 110.392C451.308 113.644 457.727 112.496 460.979 107.829L444.078 96.0544Z" stroke="#3A8598" stroke-opacity="0.5" stroke-width="0.5" stroke-miterlimit="10" stroke-linecap="round" stroke-linejoin="round"/>
<path d="M446.282 92.8901L446.901 96.3509" stroke="#3A8598" stroke-opacity="0.5" stroke-width="0.5" stroke-miterlimit="10" stroke-linecap="round" stroke-linejoin="round"/>
<path d="M456.216 92.3252C456.008 92.6835 455.933 93.1038 456.004 93.5121C456.087 93.9756 455.982 94.4531 455.713 94.8394C455.444 95.2257 455.032 95.4894 454.569 95.5723C454.105 95.6552 453.694 95.9189 453.425 96.3052C453.156 96.6915 453.051 97.169 453.134 97.6325C453.051 97.169 453.156 96.6915 453.425 96.3052C453.694 95.9189 454.105 95.6552 454.569 95.5723C455.032 95.4894 455.444 95.2257 455.713 94.8394C455.982 94.4531 456.087 93.9756 456.004 93.5121C455.933 93.1038 456.008 92.6835 456.216 92.3252" stroke="#3A8598" stroke-opacity="0.5" stroke-width="0.5" stroke-miterlimit="10" stroke-linecap="round" stroke-linejoin="round"/>
<path d="M457.991 93.2112C457.678 93.5983 457.523 94.1082 457.618 94.6362C457.7 95.0997 457.596 95.5771 457.326 95.9635C457.057 96.3498 456.646 96.6134 456.182 96.6964C455.719 96.7793 455.307 97.0429 455.038 97.4293C454.769 97.8156 454.664 98.293 454.747 98.7565C454.664 98.293 454.769 97.8156 455.038 97.4293C455.307 97.0429 455.719 96.7793 456.182 96.6964C456.646 96.6134 457.057 96.3498 457.326 95.9635C457.596 95.5771 457.7 95.0997 457.618 94.6362C457.523 94.1082 457.678 93.5983 457.991 93.2112Z" stroke="#3A8598" stroke-opacity="0.5" stroke-width="0.5" stroke-miterlimit="10" stroke-linecap="round" stroke-linejoin="round"/>
<path d="M459.526 94.3875C459.384 94.5805 459.283 94.8004 459.228 95.0339C459.174 95.2673 459.167 95.5094 459.21 95.7454C459.292 96.2089 459.188 96.6863 458.919 97.0727C458.649 97.459 458.238 97.7226 457.774 97.8056C457.311 97.8885 456.899 98.1521 456.63 98.5385C456.361 98.9248 456.256 99.4022 456.339 99.8658C456.256 99.4022 456.361 98.9248 456.63 98.5385C456.899 98.1521 457.311 97.8885 457.774 97.8056C458.238 97.7226 458.649 97.459 458.919 97.0727C459.188 96.6863 459.292 96.2089 459.21 95.7454C459.168 95.5094 459.174 95.2674 459.228 95.0339C459.283 94.8005 459.384 94.5806 459.527 94.3877" stroke="#3A8598" stroke-opacity="0.5" stroke-width="0.5" stroke-miterlimit="10" stroke-linecap="round" stroke-linejoin="round"/>
</g>
<g clip-path="url(#clip6)">
<path d="M18.3272 280.664C18.4157 280.805 18.4444 280.976 18.4071 281.138C18.3697 281.301 18.2693 281.442 18.1279 281.53L14.9297 283.533C14.5988 283.74 14.3402 284.044 14.1896 284.405C14.039 284.765 14.0038 285.163 14.0888 285.544L18.7954 282.596C18.9368 282.508 19.1076 282.479 19.2701 282.516C19.4327 282.554 19.5737 282.654 19.6622 282.796C19.7508 282.937 19.7795 283.108 19.7421 283.27C19.7048 283.433 19.6043 283.574 19.463 283.662L14.7563 286.61C15.0619 286.852 15.4353 286.995 15.825 287.016C16.2147 287.038 16.6016 286.938 16.9323 286.731L20.1305 284.728C20.2719 284.64 20.4426 284.611 20.6052 284.649C20.7677 284.686 20.9088 284.786 20.9973 284.928C21.0858 285.069 21.1146 285.24 21.0772 285.402C21.0398 285.565 20.9394 285.706 20.798 285.795L17.5999 287.797C16.9856 288.182 16.2571 288.343 15.5379 288.252C14.8187 288.162 14.1528 287.826 13.653 287.3L5.60425 292.34C5.46289 292.429 5.29214 292.458 5.12959 292.42C4.96703 292.383 4.82598 292.282 4.73746 292.141C4.64894 292 4.6202 291.829 4.65757 291.666C4.69494 291.504 4.79535 291.363 4.93672 291.274L12.9854 286.234C12.7314 285.555 12.7197 284.81 12.9524 284.123C13.185 283.437 13.6477 282.851 14.2622 282.467L17.4604 280.464C17.6017 280.376 17.7725 280.347 17.935 280.384C18.0976 280.422 18.2387 280.522 18.3272 280.664ZM21.4092 289.091C21.6859 289.154 21.9365 289.262 22.145 289.403L16.9373 292.664L16.2698 291.598L20.001 289.262C20.3602 289.037 20.8815 288.969 21.4092 289.091ZM15.8713 293.332L8.94191 297.671C8.80054 297.759 8.70013 297.9 8.66276 298.063C8.62539 298.225 8.65412 298.396 8.74265 298.537C8.83116 298.679 8.97222 298.779 9.13477 298.817C9.29733 298.854 9.46807 298.825 9.60944 298.737L23.4682 290.059C23.6095 289.97 23.7099 289.829 23.7473 289.667C23.7847 289.504 23.7559 289.333 23.6674 289.192C23.2248 288.485 22.4634 288.042 21.6913 287.863C20.9188 287.687 20.0402 287.753 19.3335 288.196L15.0692 290.866C14.9279 290.954 14.8275 291.095 14.7901 291.258C14.7527 291.42 14.7815 291.591 14.87 291.733L15.8713 293.332Z" fill="#3A8598" fill-opacity="0.5"/>
</g>
<g clip-path="url(#clip7)">
<path d="M384.502 7.55595L384.511 7.54599" stroke="#FF8A00" stroke-opacity="0.5" stroke-width="1.5" stroke-linecap="round" stroke-linejoin="round"/>
<path d="M379.47 6.71742L379.48 6.70746" stroke="#FF8A00" stroke-opacity="0.5" stroke-width="1.5" stroke-linecap="round" stroke-linejoin="round"/>
<path d="M379.47 11.7486L379.48 11.7387" stroke="#FF8A00" stroke-opacity="0.5" stroke-width="1.5" stroke-linecap="round" stroke-linejoin="round"/>
<path d="M377.793 15.9322L374.637 2.51897C374.617 2.43322 374.62 2.34366 374.645 2.25926C374.67 2.17486 374.717 2.09858 374.781 2.03804C374.845 1.97751 374.924 1.93485 375.01 1.91432C375.095 1.8938 375.185 1.89614 375.269 1.9211L388.694 5.86976" stroke="#FF8A00" stroke-opacity="0.5" stroke-width="1.5"/>
<path d="M391.376 7.06467C391.423 6.87769 391.432 6.68333 391.404 6.49267C391.376 6.30201 391.31 6.1188 391.211 5.95349C391.112 5.78818 390.981 5.64402 390.826 5.52922C390.671 5.41443 390.495 5.33126 390.308 5.28446C390.121 5.23766 389.927 5.22815 389.736 5.25646C389.546 5.28478 389.363 5.35037 389.197 5.4495C389.032 5.54862 388.888 5.67933 388.773 5.83417C388.658 5.98901 388.575 6.16494 388.528 6.35192C388.2 7.66674 386.935 9.74799 384.984 11.6976C383.055 13.6271 380.667 15.2144 378.302 15.7603C378.112 15.8013 377.932 15.8797 377.773 15.9909C377.613 16.1021 377.477 16.2439 377.373 16.4081C377.269 16.5723 377.198 16.7555 377.165 16.9472C377.133 17.1389 377.138 17.3352 377.182 17.5247C377.226 17.7142 377.307 17.8932 377.42 18.0511C377.534 18.209 377.677 18.3428 377.843 18.4447C378.009 18.5466 378.193 18.6145 378.385 18.6446C378.577 18.6746 378.773 18.6662 378.962 18.6197C382.048 17.9078 384.901 15.9314 387.059 13.773C389.197 11.6355 390.866 9.10399 391.376 7.06467Z" stroke="#FF8A00" stroke-opacity="0.5" stroke-width="1.5" stroke-linecap="round"/>
</g>
<defs>
<clipPath id="clip0">
<rect width="550.918" height="242.337" fill="white" transform="matrix(-1 0 0 1 626 139.197)"/>
</clipPath>
<clipPath id="clip1">
<rect width="29.3351" height="29.3351" fill="white" transform="translate(554.724 178.908) rotate(-37.6257)"/>
</clipPath>
<clipPath id="clip2">
<rect width="20.5643" height="20.5643" fill="white" transform="translate(388.437 196.4) rotate(-36.8325)"/>
</clipPath>
<clipPath id="clip3">
<rect width="17.6093" height="17.6093" fill="white" transform="translate(475.063 238.983)"/>
</clipPath>
<clipPath id="clip4">
<rect width="32.1981" height="32.1981" fill="white" transform="translate(206.732 74.3325) rotate(-50.5391)"/>
</clipPath>
<clipPath id="clip5">
<rect width="25.5699" height="25.5699" fill="white" transform="translate(449.346 84.143) rotate(34.8635)"/>
</clipPath>
<clipPath id="clip6">
<rect width="20.1249" height="20.1249" fill="white" transform="translate(17.0569 276.265) rotate(57.9465)"/>
</clipPath>
<clipPath id="clip7">
<rect width="20.1249" height="20.1249" fill="white" transform="translate(372.762)"/>
</clipPath>
</defs>
</svg>
